<?xml version="1.0" standalone="no"?>
<!DOCTYPE svg PUBLIC "-//W3C//DTD SVG 1.1//EN" "http://www.w3.org/Graphics/SVG/1.1/DTD/svg11.dtd" >
<!--
2013-9-30: Created.
-->
<svg>
<metadata>
Created by iconfont
</metadata>
<defs>

<font id="iconfont" horiz-adv-x="1024" >
  <font-face
    font-family="iconfont"
    font-weight="500"
    font-stretch="normal"
    units-per-em="1024"
    ascent="896"
    descent="-128"
  />
    <missing-glyph />
    
    <glyph glyph-name="x" unicode="x" horiz-adv-x="1001"
d="M281 543q-27 -1 -53 -1h-83q-18 0 -36.5 -6t-32.5 -18.5t-23 -32t-9 -45.5v-76h912v41q0 16 -0.5 30t-0.5 18q0 13 -5 29t-17 29.5t-31.5 22.5t-49.5 9h-133v-97h-438v97zM955 310v-52q0 -23 0.5 -52t0.5 -58t-10.5 -47.5t-26 -30t-33 -16t-31.5 -4.5q-14 -1 -29.5 -0.5
t-29.5 0.5h-32l-45 128h-439l-44 -128h-29h-34q-20 0 -45 1q-25 0 -41 9.5t-25.5 23t-13.5 29.5t-4 30v167h911zM163 247q-12 0 -21 -8.5t-9 -21.5t9 -21.5t21 -8.5q13 0 22 8.5t9 21.5t-9 21.5t-22 8.5zM316 123q-8 -26 -14 -48q-5 -19 -10.5 -37t-7.5 -25t-3 -15t1 -14.5
t9.5 -10.5t21.5 -4h37h67h81h80h64h36q23 0 34 12t2 38q-5 13 -9.5 30.5t-9.5 34.5q-5 19 -11 39h-368zM336 498v228q0 11 2.5 23t10 21.5t20.5 15.5t34 6h188q31 0 51.5 -14.5t20.5 -52.5v-227h-327z" />
    

    
    <glyph glyph-name="wenda" unicode="&#59029;" d="M505.621504 40.913664c-9.796608 8.968192-25.269248 8.420352-34.461696-1.174528-23.573504-24.588288-52.430848-42.595328-83.934208-53.571584 20.03968 24.882176 33.604608 54.62016 38.862848 87.153664 2.50368 15.596544 3.095552 31.645696 1.595392 47.476736-1.401856 13.046784-13.24544 22.577152-26.652672 21.3248-0.239616-0.054272-0.536576-0.181248-0.719872-0.26112-2.016256 0.653312-3.820544 1.461248-6.022144 1.56672-167.140352 9.801728-297.925632 114.82112-297.925632 239.157248 0 132.245504 145.232896 239.82592 323.736576 239.82592 130.998272 0 248.315904-58.0608 299.003904-147.872768 6.393856-11.495424 21.248-15.676416 33.03424-9.435136 11.789312 6.301696 16.090112 20.70016 9.672704 32.166912C702.739456 602.083072 568.604672 669.789952 420.099072 669.789952c-205.36832 0-372.484096-128.825344-372.484096-287.204352 0-146.28864 144.912384-269.601792 331.956224-285.309952-0.237568-5.53472-0.782336-11.045888-1.585152-16.510976-7.919616-48.608256-40.419328-89.105408-87.001088-108.261376-11.70432-4.811776-17.697792-17.641472-13.554688-29.371392 3.274752-9.658368 12.439552-15.937536 22.501376-16.146432 77.985792-4.619264 153.4464 24.64768 206.848 80.507904C516.0192 17.036032 515.484672 32.033536 505.621504 40.913664zM304.091136-72.767744c0.77312 0.113664 1.547264 0.264192 2.321408 0.453632C305.6384-72.52096 304.86528-72.658176 304.091136-72.767744zM976.923648 219.309824c0 106.857472-114.418688 193.453056-255.543296 193.453056-141.115392 0-255.5904-86.595584-255.5904-193.453056 0-91.9808 84.791296-168.720384 198.334464-188.450816 28.310528-66.223104 96.524288-109.676544 173.323264-105.31328l0.422912 0c0.320512 0.054272 0.59904 0 0.93696 0-0.183296 0-0.32256 0.079872-0.420864 0.079872 5.828608 0.232448 11.40736 3.477504 13.988864 8.988672 3.712 7.68512 0.34816 16.797696-7.359488 20.589568-0.385024 0.186368-0.782336 0.347136-1.18272 0.497664-31.669248 13.212672-53.809152 40.748032-59.139072 73.797632-0.219136 0.831488-0.219136 1.693696-0.25088 2.535424C895.034368 53.249792 976.923648 128.978688 976.923648 219.309824zM842.96192-44.00256c-1.837056 0.560128-3.79392 0.784384-5.736448 0.746496C839.1424-43.166976 841.0368-43.37792 842.96192-44.00256zM830.62272-72.856832c0 0-0.028672 0-0.110592 0-0.100352 0.077824-0.100352 0.132096-0.239616 0.175104C830.410752-72.724736 830.512128-72.779008 830.62272-72.856832z"  horiz-adv-x="1024" />

    
    <glyph glyph-name="QQ" unicode="&#58910;" d="M273.5104 415.82592 272.31232 419.55328 271.33952 424.3968 270.6944 427.04896 270.6944 430.3872 270.6944 434.37056 270.6944 437.97504 271.85152 442.27584 273.02912 446.8224 274.5856 451.59424 276.6848 456.9088 279.43936 462.42816 283.33056 467.95776 283.33056 471.82848 283.70944 475.45344 284.3136 480.37888 285.98272 485.91872 287.51872 491.89888 288.74752 494.6432 290.16064 497.2032 291.98336 500.04992 293.96992 502.1696 293.96992 506.0608 293.96992 510.43328 293.96992 515.84 295.1168 522.88512 296.27392 531.06688 298.33216 540.85632 301.16864 551.04512 303.27808 556.6464 305.36704 562.7392 307.6608 568.4224 310.40512 574.5152 313.20064 581.18144 316.416 587.42784 320.03072 594.09408 324.58752 600.75008 326.69696 604.5696 328.93952 607.6928 333.824 614.73792 338.85184 621.76256 344.55552 628.992 350.6688 636.02688 357.30432 642.95936 364.22656 650.0864 372.60288 657.77664 377.91744 662.45632 384.39936 667.50464 390.97344 671.95904 398.08 676.23936 404.91008 680.04864 412.61056 683.20256 420.79232 687.08352 428.92288 689.74592 437.03296 692.51072 445.7984 695.25504 454.5536 697.344 463.75936 699.0848 473.09824 700.59008 482.31424 701.81888 491.52 703.0784 501.34016 703.61088 510.67904 703.61088 520.33536 703.61088 530.35008 703.61088 540.01664 702.39232 549.7344 701.2352 559.63648 700.20096 568.832 697.98912 578.53952 695.92064 587.65312 693.54496 597.63712 690.8928 606.7712 687.65696 615.51616 683.96032 624.85504 680.04864 633.37472 675.77856 641.65888 671.0272 649.7792 665.79456 656.77312 660.93056 660.0192 658.18624 663.41888 656.1792 669.91104 650.67008 675.3792 645.34528 680.83712 639.83616 686.15168 633.7536 690.5344 627.85536 695.7568 621.76256 699.392 615.2192 703.0784 609.40288 706.99008 602.63424 710.23616 596.74624 715.69408 584.28416 718.37696 577.8432 720.47616 571.87328 722.57536 565.39136 724.45952 559.29856 725.77024 554.05568 727.47008 547.8912 730.44992 536.8832 732.35456 527.24736 733.5936 517.92896 734.65856 510.43328 736.33792 499.01568 736.7168 497.2032 738.05824 495.14496 741.67296 489.23648 743.99744 485.23264 746.05568 481.06496 748.67712 476.60032 750.99136 471.2448 752.49664 465.7664 754.13504 459.75552 755.37408 453.59104 755.93728 450.56 756.45952 446.8224 756.45952 443.57632 755.93728 440.36096 755.93728 436.35712 754.9952 432.47616 753.27488 424.96 751.29856 421.16096 749.83424 416.89088 749.83424 415.82592 750.53056 414.50496 752.49664 411.38176 761.05728 398.71488 767.81568 389.20192 771.05152 382.85312 775.41376 375.90016 779.2128 368.2816 783.59552 360.1408 787.97824 350.98624 792.91392 340.62336 795.6992 334.27456 798.23872 328.06912 800.43008 321.52576 802.59072 315.63776 804.23936 309.4528 805.91872 303.64672 808.0384 292.32128 809.71776 280.75008 810.87488 270.4896 810.87488 264.88832 810.87488 260.28032 810.87488 256.01024 810.09664 250.88 808.99072 242.0224 807.4752 234.06592 805.12 226.84672 804.23936 223.90784 802.59072 220.3648 801.21856 217.89696 799.37536 214.85568 797.75744 212.9408 795.6992 210.46272 793.856 208.46592 791.88992 206.75584 789.53472 205.7216 787.41504 204.68736 785.67424 204.11392 784.15872 204.11392 783.01184 204.11392 781.312 204.68736 778.07616 206.2848 776.59136 207.34976 775.03488 208.46592 773.33504 209.99168 771.61472 211.70176 768.77824 214.85568 765.41952 219.31008 762.7776 223.90784 760.13568 227.584 757.5552 231.86432 753.92 239.4624 749.83424 247.36768 749.35296 247.64416 748.67712 247.64416 747.01824 246.40512 746.05568 244.3264 744.45824 241.74592 741.67296 234.06592 737.47456 223.13984 732.09856 209.99168 728.05376 203.43808 723.8144 196.59776 718.77632 188.90752 713.43104 181.38112 710.69696 177.9712 707.3792 174.25408 699.7504 166.7584 700.416 166.08256 701.45024 165.00736 705.25952 162.77504 721.13152 155.14624 728.05376 151.2448 734.65856 147.456 741.19168 142.68416 747.01824 137.76896 749.83424 135.54688 751.95392 132.98688 754.13504 130.01728 755.93728 126.80192 756.91008 124.12928 758.09792 120.92416 758.60992 118.14912 759.17312 114.91328 758.60992 112.7424 758.60992 110.5408 758.09792 108.26752 756.91008 106.1888 756.45952 104.56064 755.37408 102.58432 752.49664 98.6624 749.83424 95.51872 747.776 93.16352 746.05568 91.42272 741.67296 88.22784 736.7168 85.44256 731.43296 82.78016 725.77024 80.22016 719.45216 77.74208 716.05248 76.70784 713.07264 75.86816 705.73056 74.15808 698.15296 72.52992 690.5344 70.912 682.25024 69.56032 673.71008 69.20192 664.95488 68.1472 656.29184 68.1472 647.17824 68.1472 637.77792 68.1472 627.97824 68.72064 618.8544 69.56032 609.01376 70.912 599.25504 71.95648 588.97408 73.39008 579.01056 75.86816 569.2928 77.74208 559.63648 80.50688 549.7344 84.04992 540.01664 86.97856 534.89664 88.68864 530.35008 90.30656 527.47264 91.42272 524.61568 92.02688 520.93952 92.02688 516.53632 92.02688 507.19744 92.68224 502.4768 93.16352 496.39424 93.83936 492.4928 90.30656 487.168 86.97856 479.9488 83.46624 471.9616 79.08352 467.10784 76.70784 462.03904 74.82368 450.84672 70.2464 444.76416 68.72064 438.38464 67.00032 429.53728 65.28 423.99744 64.84992 418.14016 64.34816 412.02688 63.67232 404.91008 63.40608 398.08 63.40608 390.97344 63.40608 375.83872 63.40608 359.424 63.67232 343.48032 65.28 335.4112 66.42688 327.61856 67.584 320.03072 68.72064 312.44288 70.2464 305.36704 72.52992 298.33216 74.15808 291.98336 76.70784 285.98272 79.08352 280.38144 81.75616 275.51744 84.67456 270.6944 88.22784 269.04576 89.94816 266.88512 92.02688 265.24672 93.83936 263.77216 95.92832 262.41024 98.00704 261.35552 100.10624 259.82976 104.56064 259.29728 106.86464 258.62144 109.42464 258.62144 111.79008 259.29728 114.46272 259.29728 117.11488 259.82976 119.76704 259.82976 121.38496 259.82976 125.12256 260.08576 127.9488 261.35552 131.18464 262.41024 134.42048 264.32512 138.32192 265.728 139.8272 266.88512 141.568 269.90592 145.26464 272.31232 147.16928 274.5856 148.50048 276.6848 150.19008 280.00256 151.2448 282.66496 152.86272 285.98272 154.5728 289.76128 155.70944 293.56032 156.86656 297.96352 157.82912 302.1312 158.38208 307.07712 159.0272 312.44288 159.4368 313.83552 159.8976 314.14272 159.8976 314.81856 160.47104 314.81856 161.1264 313.83552 162.4576 310.9888 163.80928 303.872 169.97376 299.08992 173.78304 293.56032 178.62656 287.98976 184.04352 282.19392 190.96576 275.51744 198.76864 273.02912 202.98752 269.73184 207.34976 266.88512 212.38784 264.32512 217.89696 260.87424 223.13984 258.62144 229.12 255.93856 235.08992 253.25568 241.74592 251.31008 248.12544 249.45664 256.01024 248.90368 256.29696 248.34048 256.29696 248.05376 256.86016 247.36768 256.86016 246.24128 256.29696 245.67808 256.01024 244.89984 254.68928 244.62336 253.0816 244.03968 251.648 243.02592 249.26208 239.7696 243.46624 238.08 239.95392 235.39712 236.89216 232.5504 233.20576 229.40672 229.12 226.08896 225.49504 222.18752 221.98272 218.58304 218.68544 214.58944 216.064 210.2272 213.32992 206.0288 211.70176 201.08288 210.46272 196.22912 209.99168 195.75808 209.99168 195.08224 209.99168 193.96608 210.46272 193.08544 212.38784 191.66208 213.32992 189.7984 217.89696 188.63104 220.3648 187.38176 223.90784 186.34752 227.584 185.79456 231.20896 184.25856 239.4624 183.67488 244.3264 183.67488 249.26208 183.67488 260.28032 184.25856 272.18944 185.22112 278.272 186.34752 284.53888 187.38176 291.28704 189.21472 297.56416 191.27296 304.7936 193.39264 311.83872 196.22912 319.08864 198.90176 326.00064 202.5984 333.01504 206.0288 340.62336 210.2272 347.76064 215.16288 355.46112 220.18048 362.38336 225.42336 370.08384 229.79584 375.4496 235.39712 381.5936 241.29536 387.7888 244.03968 390.73792 247.36768 394.05568 252.20096 398.24384 257.16736 402.51392 265.24672 409.7536 271.33952 414.208Z"  horiz-adv-x="1024" />

    
    <glyph glyph-name="heart-all" unicode="&#58967;" d="M512-54.848q-14.848 0-25.152 10.272l-356.576 344q-5.728 4.576-15.712 14.848t-31.712 37.44-38.848 55.712-30.56 69.152-13.44 78.848q0 125.728 72.576 196.576t200.576 70.848q35.424 0 72.288-12.288t68.576-33.152 54.56-39.136 43.424-38.848q20.576 20.576 43.424 38.848t54.56 39.136 68.576 33.152 72.288 12.288q128 0 200.576-70.848t72.576-196.576q0-126.272-130.848-257.152l-356-342.848q-10.272-10.272-25.152-10.272z"  horiz-adv-x="1024" />

    
    <glyph glyph-name="erji" unicode="&#59023;" d="M863.215636 430.004777l-47.664486 0c-18.735458 159.054529-146.074758 282.995329-298.434921 282.995329-152.142189 0-279.709697-124.059504-298.456411-282.995329l-47.671649 0c-55.776566 0-101.179453-48.131207-101.179453-107.290585l0-117.445876c0-59.160401 45.401863-107.291608 101.179453-107.291608l73.250236 0c7.426437 0 14.52438 2.949168 19.765969 8.190543 5.241589 5.241374 8.189855 12.366655 8.189855 19.765159l-0.02763 79.334883 0.00614 47.192835c0.008187 0.276293 0.02149 0.549515 0.02149 0.827855 0 1.610684 0 136.747477 0.02763 140.65139C274.406707 539.042145 384.267222 657.088702 517.116229 657.088702c133.395475 0 243.25599-118.565373 244.89437-264.267802 0.023537-3.662413 0.026607-114.296139 0.026607-135.901203l0-130.986263c0-15.451924 12.504291-27.955702 27.955824-27.955702l73.222605 0c55.804197 0 101.207083 48.130184 101.207083 107.291608L964.422719 322.714192C964.423742 381.87357 919.020856 430.004777 863.215636 430.004777zM170.988169 153.890158c-24.953321 0-45.265758 23.041786-45.265758 51.379181L125.722411 322.714192c0 28.337395 20.312437 51.378158 45.265758 51.378158l45.293388 0-0.02763-51.378158 0.02763-168.824033L170.988169 153.890158zM908.510047 205.269339c0-28.337395-20.312437-51.379181-45.294411-51.379181l-45.264734 0L817.950901 374.092349l45.264734 0c24.981974 0 45.294411-23.040762 45.294411-51.378158L908.510047 205.269339z"  horiz-adv-x="1024" />

    
    <glyph glyph-name="bofang" unicode="&#58909;" d="M839.164908 338.421942 240.50216-45.694459c-32.559867-21.048385-76.198502-11.69332-76.198502 19.264762L164.303659 793.993768c0 35.897581 40.684228 38.282908 76.198502 19.23304L839.164908 429.157479C863.815318 404.092617 863.815318 363.471454 839.164908 338.421942zM227.422748 30.839635l568.042125 352.942401L227.422748 736.709087C227.422748 680.378128 227.422748 45.61106 227.422748 30.839635z"  horiz-adv-x="1024" />

    
    <glyph glyph-name="dianhua" unicode="&#59028;" d="M166.41 148.02c-38.266-43.746-39.057-105.703-1.762-138.373l110.635-96.932 5.212-4.021c7.777-5.282 16.993-8.59 27.464-10.031 27.326-3.759 63.166 5.199 104.05 24.885 80.291 38.661 180.039 118.678 273.005 224.959 92.965 106.278 159.02 215.818 186.689 300.58 19.486 59.692 19.93 107.098-2.683 132.428l-4.668 4.633-110.636 96.934c-12.003 10.516-26.483 16.717-41.883 18.835-32.454 4.464-68.987-9.213-94.936-38.882l-69.885-79.892c-38.267-43.746-39.052-105.704-1.758-138.378l105.638-92.554c-23.978-33.973-51.127-68.546-81.072-102.783-29.945-34.236-60.597-65.738-91.076-94.022l-105.634 92.552c-12.003 10.518-26.482 16.721-41.883 18.836-32.453 4.464-68.982-9.213-94.936-38.882L166.41 148.02 166.41 148.02zM705.131 653.203c6.368-0.876 11.822-3.269 16.216-7.12l11.856-10.388L588.152 472.538l-10.53 9.226c-9.505 8.327-10.784 20.758-10.699 27.426 0.185 14.236 6.398 29.39 17.054 41.571l69.884 79.892C667.901 646.704 688.027 655.556 705.131 653.203L705.131 653.203zM236.833 13.829l144.762 162.993 77.745-68.837 20.341-18.749 32.458 30.123c32.376 30.04 64.217 62.907 94.64 97.688 30.428 34.79 58.772 70.723 84.236 106.806l25.537 36.187-33.296 29.175-63.763 55.284L766.96 609.543l63.875-59.384 2.002-1.984c4.104-5.819 9.676-30.187-7.834-83.826-12.653-38.769-34.779-84.301-63.972-131.676-31.306-50.801-69.323-101.872-112.983-151.782-43.66-49.916-89.21-94.379-135.38-132.158-43.06-35.23-85.228-63.198-121.952-80.876-45.113-21.727-68.217-21.564-76.057-20.485-3.124 0.43-4.941 1.111-5.937 1.631l-2.224 1.716L236.833 13.829zM186.321 74.065c0.18 14.238 6.393 29.392 17.05 41.573l69.88 79.893c14.04 16.051 34.171 24.903 51.28 22.554 6.363-0.875 11.813-3.273 16.211-7.125l8.354-7.316L205.301 39.97l-8.287 6.671C187.51 54.973 186.232 67.4 186.321 74.065L186.321 74.065z"  horiz-adv-x="1024" />

    
    <glyph glyph-name="weixin" unicode="&#58911;" d="M669.10901 528.162354c10.238598 0 20.367698-0.751107 30.41493-1.86958-27.329535 127.249149-163.374458 221.791385-318.669583 221.791385-173.612033 0-315.828769-118.336152-315.828769-268.599458 0-86.735433 47.314501-157.962661 126.380424-213.20687l-31.58871-95.003747 110.409029 55.363935c39.505331-7.819083 71.203539-15.861246 110.627003-15.861246 9.911127 0 19.740385 0.491187 29.486753 1.257643-6.170789 21.115923-9.746368 43.230594-9.746368 66.174142C400.594741 416.187073 519.084127 528.162354 669.10901 528.162354zM499.291551 613.791593c23.77954 0 39.531938-15.643282 39.531938-39.409568 0-23.669072-15.752398-39.531342-39.531938-39.531342-23.672089 0-47.423999 15.861246-47.423999 39.531342C451.867552 598.147288 475.619462 613.791593 499.291551 613.791593zM278.254496 534.850683c-23.671066 0-47.560104 15.861246-47.560104 39.531342 0 23.766286 23.888015 39.409568 47.560104 39.409568 23.670042 0 39.423463-15.643282 39.423463-39.409568C317.677959 550.711929 301.924538 534.850683 278.254496 534.850683zM957.36264 282.004001c0 126.266775-126.352793 229.190913-268.268665 229.190913-150.270486 0-268.622743-102.925161-268.622743-229.190913 0-126.484739 118.352258-229.189889 268.622743-229.189889 31.452605 0 63.176397 7.930623 94.76613 15.84692l86.627442-47.434336-23.752933 78.92556C910.130007 147.712459 957.36264 210.776773 957.36264 282.004001zM601.999886 321.52204c-15.725791 0-31.587687 15.643282-31.587687 31.601742 0 15.737426 15.861896 31.586392 31.587687 31.586392 23.892109 0 39.535008-15.848966 39.535008-31.586392C641.534894 337.165322 625.891995 321.52204 601.999886 321.52204zM775.723464 321.52204c-15.617316 0-31.369713 15.643282-31.369713 31.601742 0 15.737426 15.753421 31.586392 31.369713 31.586392 23.670042 0 39.532962-15.848966 39.532962-31.586392C815.256426 337.165322 799.393506 321.52204 775.723464 321.52204z"  horiz-adv-x="1024" />

    
    <glyph glyph-name="shijian" unicode="&#58947;" d="M511.999488 832.208115c-247.537769 0-448.208115-200.669322-448.208115-448.207092s200.670346-448.208115 448.208115-448.208115c247.538793 0 448.208115 200.670346 448.208115 448.208115S759.538281 832.208115 511.999488 832.208115zM511.998465 7.931902c-207.696366 0-376.067075 168.371732-376.067075 376.068098 0 207.697389 168.370709 376.069121 376.067075 376.069121 207.698412 0 376.069121-168.371732 376.069121-376.069121C888.067586 176.303634 719.696878 7.931902 511.998465 7.931902zM474.707141 308.020538c-23.369244 0-42.382273 19.009959-42.382273 42.376133l0 298.099329c0 23.369244 19.013029 42.382273 42.382273 42.382273 23.36515 0 42.374086-19.013029 42.374086-42.382273l0-255.718079 181.194782 0c23.369244 0 42.38125-19.012006 42.38125-42.38125 0-23.366174-19.012006-42.376133-42.38125-42.376133L474.707141 308.020538z"  horiz-adv-x="1024" />

    
    <glyph glyph-name="iconfont-certificate" unicode="&#59006;" d="M385.344-3.84l-261.888 0c-35.296 0-64 29.632-64 66.016l0 709.408c0 36.416 28.704 66.016 64 66.016l666.624 0c35.296 0 64-29.632 64-66.016l0-269.088-64 0 0 269.088-666.592 2.016 0-711.424 261.888-2.016L385.376-3.84zM215.648 682.112l450.272 0 0-64-450.272 0 0 64ZM215.648 526.624l363.008 0 0-64-363.008 0 0 64ZM215.648 371.168l243.68 0 0-64-243.68 0 0 64ZM215.648 215.648l243.68 0 0-64-243.68 0 0 64ZM956.544 29.792l-96.832 180.576c10.016 22.496 15.808 47.296 15.904 73.472 0.384 100.928-81.152 183.104-182.176 183.456-100.96 0.448-183.168-81.12-183.52-182.08-0.128-26.816 5.856-52 16.096-75.008l-98.624-178.304c-3.168-5.664-2.688-12.8 1.216-18.016 3.936-5.248 10.592-7.68 16.992-6.24l83.552 18.88 28.288-79.68c2.208-6.208 7.84-10.432 14.304-11.072 0.448 0.032 0.832 0 1.312 0 6.048-0.064 11.744 3.264 14.688 8.672l86.176 159.104c6.08-0.672 11.936-1.888 18.144-1.952 5.664 0 11.072 1.12 16.704 1.696l86.784-159.68c2.944-5.504 8.512-8.768 14.592-8.736 0.384-0.096 0.8-0.032 1.312 0.032 6.496 0.48 12.096 4.736 14.432 10.816l28.8 79.488 83.36-19.392c6.4-1.6 13.056 0.864 16.96 6.016C959.04 16.992 959.552 24.064 956.544 29.792zM572.384 51.84l-10.4 29.312c-1.408 4-5.536 6.336-9.76 5.344l-31.04-6.944 43.936 78.88c16.128-16.288 29.312-23.424 47.328-33.344L572.384 51.84zM692.096 168.384c-64.32 0.32-116.544 52.864-116.224 117.248 0.192 64.32 52.768 116.544 117.152 116.256 64.352-0.224 116.48-52.768 116.224-117.12C809.024 220.384 756.48 168.224 692.096 168.384zM835.264 73.76c-4.928 1.216-9.824-1.632-11.52-6.24l-12.352-34.624-47.072 86.496c21.312 11.68 36.832 20.16 55.968 39.296l51.584-93.216L835.264 73.76z"  horiz-adv-x="1024" />

    
    <glyph glyph-name="arrow" unicode="&#58898;" d="M398.099 564.067l180-179.989-182.348-182.359c-5.947-6.185-9.628-14.571-9.628-23.841 0-18.979 15.377-34.354 34.353-34.354 9.272 0 17.658 3.68 23.844 9.628l0.011-0.01 206.111 206.134c6.477 6.249 10.511 15.007 10.511 24.724 0 0.023 0 0.057 0 0.078 0 0.023 0 0.047 0 0.068 0 9.717-4.035 18.475-10.511 24.724l0.012 0.012-206.213 206.035c-6.173 5.914-14.538 9.561-23.764 9.561-18.976 0-34.353-15.375-34.353-34.354-0.002-10.421 4.64-19.759 11.976-26.054z"  horiz-adv-x="1024" />

    
    <glyph glyph-name="tick" unicode="&#59010;" d="M152.85248 343.5328l-43.53536-65.29792 282.96704-326.49984 43.5328 0L914.68288 604.73216l-43.5328 43.5328L435.81696 147.63392l-43.5328 0L152.85248 343.5328z"  horiz-adv-x="1024" />

    
    <glyph glyph-name="qqkongjian" unicode="&#58965;" d="M679.161 461.821c-203.317 36.492-371.879-5.213-371.879-5.213 99.053 3.476 257.188-19.116 257.188-19.116l-217.22-159.873c133.059-20.564 268.643-6.605 338.764 3.778l-1.728 10.071c-89.339 4.96-213.658 19.168-213.658 19.168l208.532 151.184zM511.63 893.333c-281.077 0-508.939-227.859-508.939-508.939s227.859-508.939 508.939-508.939 508.939 227.859 508.939 508.939-227.859 508.939-508.939 508.939zM684.287 291.468c18.893-1.049 36.223-1.685 50.482-1.685 0 0-18.139-3.853-48.755-8.385l33.373-194.579-211.232 111.052-211.232-111.052 40.342 235.211-170.892 166.575 236.165 34.317 105.616 214.002 105.616-214.002 236.165-34.317-170.892-166.576 5.242-30.561z"  horiz-adv-x="1024" />

    
    <glyph glyph-name="circle-close" unicode="&#58970;" d="M512 768C300.8 768 128 595.2 128 383.968 128 172.8 300.8 0 512 0s384 172.8 384 383.968C896 595.2 723.2 768 512 768zM512 32c-193.616 0-352 158.4-352 351.968C160 577.6 318.384 736 512 736s352-158.4 352-352.032C864 190.4 705.616 32 512 32zM681.696 576.336 512 406.64 342.304 576.336 319.664 553.696 489.36 384 319.664 214.304 342.304 191.664 512 361.36 681.696 191.664 704.336 214.304 534.64 384 704.336 553.696Z"  horiz-adv-x="1024" />

    
    <glyph glyph-name="close" unicode="&#58948;" d="M217.261385 729.087554l637.192566-642.804205-45.468516-45.071579-637.192566 642.804205 45.468516 45.071579ZM169.755459 85.27057l637.192566 642.804205 45.468516-45.071579-637.192566-642.804205-45.468516 45.071579Z"  horiz-adv-x="1024" />

    
    <glyph glyph-name="androidmorevertical" unicode="&#59102;" d="M592 540c0 44.004-35.996 80-80 80s-80-35.996-80-80 35.996-80 80-80S592 495.996 592 540zM592 60c0 44.004-35.996 80-80 80s-80-35.996-80-80 35.996-80 80-80S592 15.996 592 60zM592 300c0 44.004-35.996 80-80 80s-80-35.996-80-80 35.996-80 80-80S592 255.996 592 300z"  horiz-adv-x="1024" />

    
    <glyph glyph-name="weixin1" unicode="&#58912;" d="M382.574279 724.386434c69.043493 0 136.570445-20.525476 190.140525-57.794287 39.933501-27.78174 69.898976-63.379493 87.015819-102.719476-159.28375-5.340635-287.117207-128.525212-287.117207-279.17942 0-12.438287 0.941442-24.998347 2.812045-37.58399-27.131941 0.759293-51.360761 5.732561-79.063707 11.420097-5.969968 1.225921-12.143575 2.492774-18.533099 3.75758-1.908466 0.3776-3.837398 0.564865-5.761214 0.564865-4.592598 0-9.150404-1.066285-13.302981-3.148713l-46.206368-23.170722 8.937556 26.880207c4.143367 12.462846-0.397043 26.165939-11.163247 33.688263-75.354222 52.652174-113.561405 116.124787-113.561405 188.652638 0 63.421448 29.185716 123.004475 82.181721 167.774121 26.227338 22.156626 56.885592 39.572274 91.121324 51.764967C305.655422 717.962118 343.505471 724.386434 382.574279 724.386434M382.574279 754.062314c-173.420725 0-315.478138-118.207216-315.478138-268.309862 0-86.643336 47.26242-157.793816 126.240169-212.977649l-31.553647-94.903463 110.285802 55.304583c39.46278-7.810896 71.124897-15.842827 110.506836-15.842827 9.899464 0 19.716041 0.48914 29.450752 1.25355-6.163373 21.092387-9.734712 43.184545-9.734712 66.106604 0 137.829112 118.358665 249.683642 268.215718 249.683642 10.226922 0 20.344351-0.751107 30.380938-1.868557C673.588235 659.620361 537.691125 754.062314 382.574279 754.062314L382.574279 754.062314zM690.469718 487.749946c65.437361 0 125.366266-18.872836 168.748309-53.140291 45.497217-35.939537 69.545936-86.469374 69.545936-146.127102 0-35.011398-8.332782-63.34777-26.225291-89.176019-18.270109-26.375717-45.600571-48.625464-72.414263-68.741617-9.959839-7.472182-14.196327-20.366863-10.608615-32.289404l2.846838-9.460466-22.982434 12.585643c-4.40431 2.411933-9.31004 3.647063-14.253632 3.647063-2.412956 0-4.837168-0.294712-7.214309-0.890276-30.655184-7.682983-59.610656-14.941294-87.443561-14.941294-34.765805 0-67.289546 4.500501-96.667643 13.375635-29.074176 8.78406-54.409191 21.668509-75.303057 38.297234-21.140483 16.825201-37.521568 37.376259-48.689932 61.083194-11.935843 25.337061-17.987676 54.443983-17.987676 86.511329 0 52.426023 23.981181 101.879342 67.524906 139.251507C564.439326 466.435501 625.212458 487.749946 690.469718 487.749946M690.469718 517.425825c-150.102646 0-268.324188-102.812597-268.324188-228.943272 0-150.245909 118.221542-228.943272 268.324188-228.943272 31.416524 0 63.104223 7.922437 94.658893 15.83157l86.531795-47.385217-23.725354 78.840626c63.325257 47.508014 110.505813 93.490278 110.505813 181.656293C958.439842 434.995441 832.225255 517.425825 690.469718 517.425825L690.469718 517.425825zM274.933723 588.832132c6.019087 0 10.915607-4.89652 10.915607-10.915607s-4.89652-10.915607-10.915607-10.915607-10.915607 4.89652-10.915607 10.915607S268.914636 588.832132 274.933723 588.832132M274.933723 618.508012c-22.417569 0-40.591487-18.172895-40.591487-40.591487s18.172895-40.591487 40.591487-40.591487c22.417569 0 40.591487 18.172895 40.591487 40.591487S297.351292 618.508012 274.933723 618.508012L274.933723 618.508012zM493.549789 588.832132c6.019087 0 10.915607-4.89652 10.915607-10.915607s-4.89652-10.915607-10.915607-10.915607-10.915607 4.89652-10.915607 10.915607S487.530702 588.832132 493.549789 588.832132M493.549789 618.508012c-22.417569 0-40.591487-18.172895-40.591487-40.591487s18.172895-40.591487 40.591487-40.591487c22.417569 0 40.591487 18.172895 40.591487 40.591487S515.967358 618.508012 493.549789 618.508012L493.549789 618.508012zM612.045577 369.844605c6.019087 0 10.915607-4.89652 10.915607-10.915607s-4.89652-10.915607-10.915607-10.915607-10.915607 4.89652-10.915607 10.915607S606.02649 369.844605 612.045577 369.844605M612.045577 399.520485c-22.417569 0-40.591487-18.172895-40.591487-40.591487s18.172895-40.591487 40.591487-40.591487c22.417569 0 40.591487 18.172895 40.591487 40.591487S634.463146 399.520485 612.045577 399.520485L612.045577 399.520485zM775.399015 369.844605c6.019087 0 10.915607-4.89652 10.915607-10.915607s-4.89652-10.915607-10.915607-10.915607-10.915607 4.89652-10.915607 10.915607S769.380952 369.844605 775.399015 369.844605M775.399015 399.520485c-22.417569 0-40.591487-18.172895-40.591487-40.591487s18.172895-40.591487 40.591487-40.591487c22.417569 0 40.591487 18.172895 40.591487 40.591487S797.816584 399.520485 775.399015 399.520485L775.399015 399.520485z"  horiz-adv-x="1024" />

    
    <glyph glyph-name="qzone" unicode="&#58966;" d="M512.589424 831.53171c-246.997464 0-447.231881-200.242604-447.231881-447.231881S265.627776-62.933075 512.589424-62.933075c247.029186 0 447.231881 200.242604 447.231881 447.231881S759.616564 831.53171 512.589424 831.53171zM832.713372 450.155722 690.339758 319.945125c-7.390317-6.916527-8.925277-10.237155-7.390317-19.854187l3.094478-16.58063c-68.835761 0.862647-145.429207 3.925403-207.54287 12.516058-5.066389 0.737804-0.372483 3.431146-0.372483 3.431146l201.937199 136.90302c0 0 7.988951 4.853541-0.560772 6.116301-11.051707 1.760087-34.180474 4.847401-34.131355 4.895497-40.860617 4.889357-85.71929 7.578606-132.798539 7.578606-79.801511 0-153.254429-7.759731-211.593116-20.780279 1.988284 0 3.967358 0.045025 5.953595 0.045025 86.325088 0 178.160679-3.208065 261.062807-15.887852 5.226025-0.684592-0.062422-3.900843-0.062422-3.900843L366.271988 274.277016c0 0-8.477069-4.920056-0.675382-6.134721 20.8734-2.805906 42.885739-5.025457 65.805752-6.583952l0.115634 0.076748c26.067702-1.809205 53.262064-2.774183 81.272002-2.774183 75.864852 0 157.711951 8.260128 217.23051 22.196535l4.057409 0.772596c-9.976212-7.891737-26.66429-14.875802-43.88858-20.574594l28.770254-154.379043c3.124154-16.593933-6.55223-23.261797-21.490453-14.81645l-168.17935 94.975095c-11.523451 6.977925-22.363334 6.765077-34.124192-0.455371l-167.363775-94.519724c-14.931061-8.445346-24.562419-1.795902-21.389146 14.809287l37.594223 193.482643c1.962701 8.68787 1.847068 11.388375-5.067412 17.703197L192.317097 449.903989c-12.484336 11.653411-8.645914 22.557762 8.518001 24.238031l186.866968 20.516266c14.535041 1.349741 17.304108 3.597945 23.292496 13.528108l87.936795 179.053002c7.53972 15.176654 19.877723 15.176654 27.418466 0l82.500992-179.051979c4.609994-11.737322 7.919367-13.991666 22.679535-15.338337l192.908568-18.707061C841.612043 472.462774 845.338924 461.658707 832.713372 450.155722z"  horiz-adv-x="1024" />

    
    <glyph glyph-name="video" unicode="&#59040;" d="M183.42 460.396c-10.667 0-19.301-8.651-19.301-19.3 0-10.668 8.634-19.301 19.301-19.301 10.669 0 19.301 8.634 19.301 19.301 0 10.649-8.633 19.3-19.301 19.3zM945.17 516.94c-6.221 3.412-13.795 3.111-19.697-0.735l-220.939-145.942v109.433c0 42.634-34.566 77.202-77.202 77.202l-482.513-0c-42.635 0-77.202-34.568-77.202-77.202v-386.012c0-42.633 34.567-77.201 77.202-77.201h482.512c42.636 0 77.202 34.568 77.202 77.201v93.015l220.789-148.146c3.204-2.092 6.898-3.185 10.611-3.185 3.148 0 6.295 0.774 9.161 2.318 6.238 3.354 10.14 9.876 10.14 16.984l-0 445.324c0.001 7.069-3.862 13.571-10.063 16.944zM665.933 338.004c-0.257-1.257-0.395-2.545-0.395-3.853v-110.997c0-1.307 0.139-2.595 0.395-3.852v-125.617c0-21.316-17.284-38.6-38.601-38.6l-482.513 0c-21.318 0-38.601 17.284-38.601 38.6v386.012c0 21.318 17.284 38.601 38.601 38.601h482.512c21.318 0 38.601-17.285 38.601-38.601v-141.693zM916.633 90.482l-212.099 142.829v90.585l212.099 140.684 0-374.098z"  horiz-adv-x="1024" />

    
    <glyph glyph-name="share" unicode="&#58963;" d="M928 416c-17.664 0-32-14.336-32-32l0-320c0-17.664-14.336-32-32-32L160 32c-17.664 0-32 14.336-32 32L128 608c0 17.664 14.336 32 32 32l224 0 0 0c0 0 0 0 0 0 17.664 0 32 14.336 32 32s-14.336 32-32 32c-1.024 0-1.888-0.48-2.88-0.576L160.384 703.424c-52.96 0-95.904-43.008-95.904-96.064l0-543.872c0-53.056 42.944-96.064 95.904-96.064l704.224 0c52.96 0 95.904 43.008 95.904 96.064L960.512 384 960 384C960 401.664 945.664 416 928 416zM402.688 275.232c-1.92-4.128-3.168-8.608-3.168-13.44 0-17.664 14.336-32 32-32 15.456 0 27.744 11.168 30.752 25.76l0.64 0c37.12 189.696 193.984 336.256 388.672 358.272l-67.776-67.776c-12.512-12.512-12.512-32.768 0-45.248 12.512-12.512 32.768-12.512 45.248 0l122.528 122.528c12.512 12.512 12.512 32.768 0 45.248l-122.528 122.528c-12.512 12.512-32.768 12.512-45.248 0-12.512-12.512-12.512-32.768 0-45.248l67.52-67.52C628.256 656.128 448.224 490.592 402.688 275.232z"  horiz-adv-x="1024" />

    
    <glyph glyph-name="qq" unicode="&#58913;" d="M517.302 893C236.944 893 9.664 665.724 9.664 385.362c0-280.362 227.28-507.637 507.638-507.637 280.361 0 507.643 227.275 507.643 507.637C1024.945 665.724 797.664 893 517.302 893zM517.302-93.971c-264.726 0-479.331 214.604-479.331 479.333 0 264.729 214.605 479.329 479.331 479.329 264.727 0 479.336-214.6 479.336-479.329C996.638 120.633 782.029-93.971 517.302-93.971zM766.986 326.737l-1.749 9.323-1.165 4.661-1.167 4.661-1.747 4.662-1.748 5.244-2.33 5.244-2.332 5.244-4.078 8.157-3.496 7.575-3.496 6.41-2.913 5.827-3.496 5.826-2.331 4.662-5.244 8.158-6.992 9.906-1.749 2.912-0.582 0.583 0 1.166 1.166 3.496 1.165 2.914 1.747 5.827 0.583 3.496 0 2.914 0.583 2.331 0 2.913-0.583 2.913-0.583 2.914-0.582 4.662-1.165 4.661-1.749 4.662-1.748 4.079-1.748 3.497-1.747 3.496-1.748 2.914-3.496 5.245-0.582 1.747-0.584 1.166-1.164 9.323-1.166 5.826-0.583 7.575-1.748 7.575-2.331 8.741-1.164 5.243-1.165 4.079-1.749 4.661-1.748 5.245-1.749 5.243-1.747 5.245-4.661 9.905-2.33 4.662-3.498 5.244-2.912 4.662-2.914 5.243-4.078 5.245-3.497 4.661-4.079 4.662-4.661 4.661-4.079 4.079-5.243 4.08-2.914 2.331-2.33 1.748-5.827 4.079-6.41 4.079-6.408 4.079-7.575 3.497-6.992 2.914-6.992 2.913-7.576 2.914-7.573 1.748-7.575 1.748-8.157 1.748-7.575 1.748-7.575 1.165-8.157 0.583-7.576 1.166-8.157 0-7.575 0-7.574 0-7.575-0.583-7.574-1.167-7.575-0.582-7.575-1.166-6.992-1.165-6.991-1.748-6.992-2.331-6.993-2.332-6.409-2.33-6.41-2.914-5.825-2.331-5.828-3.497-5.826-3.496-5.245-3.496-5.243-4.08-4.662-3.496L410.383 614l-5.827-5.245-5.244-5.826-4.661-5.827-4.661-5.828-4.078-5.243-3.497-5.827-2.331-2.914-1.748-2.913-3.496-5.245-2.913-5.244-2.331-5.244-2.33-5.245-2.331-4.661-1.748-4.661-1.748-5.244-1.748-4.079-1.748-8.158-2.331-8.158-0.582-6.409-1.166-5.827 0-4.079 0-3.496 0-3.497-1.165-1.748-1.748-1.748-1.166-2.331-0.582-2.33-1.749-4.662-1.165-4.661-0.582-3.496 0-3.497 0-2.913-3.497-4.079-1.747-4.662-2.331-4.078-1.165-4.079-0.583-3.497-1.165-3.496 0-2.914 0-3.496 0-2.331 0.583-2.331 1.165-4.079 0.583-2.914-1.748-1.165-4.662-3.497-6.409-5.827-4.079-3.496-4.078-3.497-2.914-2.331-1.748-2.33-4.661-5.245-4.662-4.662-3.495-4.662-4.079-5.827-4.079-5.826-4.078-6.41-3.497-5.244-2.913-6.41-2.913-5.826-1.748-5.244-2.331-5.827-1.748-5.826-1.748-5.827-1.748-5.244-0.582-5.244-0.583-5.244-1.165-4.661-0.583-9.323 0-8.74 0-4.079 0.583-4.078 0.581-6.41 0.584-3.496 1.165-2.913 0.583-2.914 0.582-1.748 2.331-3.496 0.582-1.165 1.166-1.164 1.165 0 1.166-0.584 1.165 0 1.748 0.584 4.661 1.164 3.497 1.165 3.496 2.33 2.913 2.332 3.495 2.33 2.914 2.914 2.331 2.914 2.913 2.912 2.331 2.913 1.748 2.914 1.165 2.331 2.913 5.244 0.583 1.747 0.583 1.166 0.582 1.166 0.583 1.164 0.583 0 0.583 0.583 0.582 0 0-0.583 0.582 0 0.584 0 1.165-6.408 1.748-5.244 2.33-5.245 2.331-4.66 1.748-4.662 2.331-4.662 2.33-4.079 2.331-4.079 2.331-3.495 2.33-3.497 5.245-6.408 4.661-5.245 4.661-4.661 4.079-4.078 4.079-2.914 5.827-1.747 2.33-1.165 0.582-0.584 0-0.583-0.582-0.581-1.166-0.584-4.078-0.582-4.079 0-3.496-0.583-3.496-0.583-3.496-1.165-2.914-1.165-2.33-1.166-2.331-1.165-2.33-0.583-2.331-1.748-1.165-1.166-2.331-1.164-2.331-2.914-1.165-1.748-1.165-1.165-1.166-2.914-0.582-2.912-1.166-2.332-0.582-2.33 0-2.913 0-1.166-0.583-2.33 0-2.33 0-2.332 0-1.748 0-2.331 0.583-1.165 1.748-3.496 0.582-1.747 0.583-2.331 1.748-1.748 1.165-1.166 1.748-1.747 1.166-1.167 4.078-2.329 4.079-2.914 4.078-2.33 5.245-1.748 5.244-1.748 5.244-1.749 5.826-1.747 5.827-1.167 6.409-0.581 5.827-1.166 6.993-1.166 12.817-1.165 12.82-0.582 12.236 0 5.826 0 5.828 0 5.243 0.582 4.661 0.583 5.245 0.582 4.078 0 6.993 1.748 5.243 1.165 5.244 1.167 8.74 3.496 4.079 1.748 4.078 1.748 6.41 3.495 5.826 2.914 4.078 2.913 3.497 2.331 4.662 0 3.495-0.583 7.576-0.583 3.496 0 2.912 0 2.331-0.582 2.33-0.583 4.08-1.165 3.496-1.748 8.157-2.331 7.575-2.913 8.157-1.748 7.574-1.749 8.158-1.747 8.158-1.749 8.157-0.582 7.573-0.582 7.576-1.167 7.574-0.581 7.576 0 7.573 0 6.992 0 6.993 1.164 6.992 0.584 6.41 0.582 6.408 1.165 5.827 1.749 5.826 1.164 2.332 0.584 2.914 1.165 5.243 1.748 4.079 2.33 4.662 1.748 4.078 2.33 3.495 2.332 1.167 1.748 1.747 1.748 2.331 2.331 1.747 2.913 1.166 2.33 0.582 1.165 0.584 1.749 0.582 1.748 0 1.747 0.582 1.748-0.582 2.332-0.582 2.33-0.584 2.33-1.165 2.332-1.165 2.913-1.748 1.747-1.748 2.332-2.33 1.748-4.662 4.078-5.244 4.079-5.243 2.913-5.828 2.914-12.818 6.409-2.549 1.529 4.298 4.297 2.912 2.914 2.331 2.913 4.078 5.826 4.079 6.41 3.497 5.827 2.913 5.245 4.661 10.487 3.496 8.74 1.748 5.827 1.747 2.33 0.584 1.748 1.164 0.583 0.584 0 0.582 0 2.913-6.409 2.913-5.828 2.332-3.495 2.33-3.496 2.331-3.496 2.331-3.496 2.33-2.331 1.165-1.164 1.166-1.749 1.748-0.584 1.164-1.164 2.332-1.165 1.748-0.583 0.582 0 1.166 0 1.747 0.583 1.749 1.165 1.748 0.583 1.747 1.165 1.167 1.749 1.747 1.746 1.166 1.749 1.165 2.33 1.747 2.332 1.167 2.33 0.581 2.913 1.749 5.827 1.748 6.41 0.582 6.991 0.583 4.078 0 3.497 0 3.496 0 4.661-1.165 8.158L766.986 326.737zM680.748 225.351l-0.582 0.582 0.971 0.971L680.748 225.351z"  horiz-adv-x="1025" />

    
    <glyph glyph-name="liwu" unicode="&#59038;" d="M847.6869-56.460528 539.677874-56.460528 539.677874 301.808182l308.009026 0L847.6869-56.460528 847.6869-56.460528zM176.464549 301.808182l307.257919 0 0-358.26871-307.257919 0L176.464549 301.808182 176.464549 301.808182zM119.967814 466.57276l363.754654 0 0-109.719914-363.754654 0L119.967814 466.57276 119.967814 466.57276zM903.430482 356.852846 539.677874 356.852846 539.677874 466.57276l363.753631 0L903.431505 356.852846 903.430482 356.852846zM281.670659 660.181269c69.530586 0 142.205792-80.456427 181.937702-138.52189l-94.776573 0c-65.22656 0-137.201825 33.813107-137.201825 94.963839C231.629963 646.753445 247.026628 660.181269 281.670659 660.181269L281.670659 660.181269zM742.473627 660.181269c34.561144 0 50.039673-14.300704 50.039673-44.429909 0-61.147662-69.408813-94.091982-134.63435-94.091982l-94.731548 0C602.917174 579.724843 672.861176 660.181269 742.473627 660.181269L742.473627 660.181269zM959.386912 466.57276c0 30.397311-25.043373 55.044664-55.95643 55.044664l-95.272877 0c24.654516 23.963785 40.311101 55.487755 40.311101 94.133937 0 47.680952-27.856441 99.474572-105.995079 99.474572-102.843296 0-188.725292-107.688651-229.118258-168.095439-40.311101 60.405765-128.923278 168.095439-231.68471 168.095439-78.138638 0-106.032942-51.79362-106.032942-99.474572 0-38.646182 16.077164-70.170153 41.234123-94.133937l-96.903004 0c-30.874171 0-55.955406-24.647353-55.955406-55.044664l0-164.764578 56.413847 0 0-358.26871c0-30.397311 25.081235-55.023174 56.038294-55.023174l671.222351 0c30.913057 0 55.955406 24.62484 55.955406 55.023174L903.64333 301.808182l55.745628 0L959.388958 466.57276 959.386912 466.57276z"  horiz-adv-x="1024" />

    
    <glyph glyph-name="arrow-down" unicode="&#58903;" d="M868.036723 416.582614l-351.940936-226.50189-351.946053 226.50189c0 0-10.596346-2.405795-14.238297-3.145646-0.027629-0.008186 1.363045-14.238297 1.363045-14.238297l364.821304-233.590339 364.816187 233.590339c0 0 1.390675 14.23011 1.363045 14.238297C878.634093 414.176818 868.036723 416.582614 868.036723 416.582614L868.036723 416.582614zM868.036723 416.582614M868.036723 604.42191l-351.940936-226.50189-351.946053 226.50189c0 0-10.596346-2.405795-14.238297-3.145646-0.027629-0.008186 1.363045-14.238297 1.363045-14.238297l364.821304-233.590339 364.816187 233.590339c0 0 1.390675 14.23011 1.363045 14.238297C878.634093 602.017138 868.036723 604.42191 868.036723 604.42191L868.036723 604.42191zM868.036723 604.42191"  horiz-adv-x="1024" />

    
    <glyph glyph-name="iconfontarrow3" unicode="&#58904;" d="M147.958949 350.014061l363.60404 234.935596 364.453495-233.629737c0 0 10.956283 2.509576 14.722586 3.285333 0.029737 0.005172-1.435152 14.723879-1.435152 14.723879L511.516444 610.262626 134.608162 367.974141c0 0-1.413172-14.723879-1.382141-14.729051C136.994909 352.484848 147.958949 350.014061 147.958949 350.014061L147.958949 350.014061 147.958949 350.014061zM148.30804 155.726869l363.60404 234.935596 364.453495-233.629737c0 0 10.956283 2.508283 14.722586 3.277576 0.029737 0.011636-1.435152 14.726465-1.435152 14.726465L511.865535 415.970263 134.957253 173.683071c0 0-1.413172-14.72-1.383434-14.731636C137.344 158.196364 148.30804 155.726869 148.30804 155.726869L148.30804 155.726869 148.30804 155.726869zM148.30804 155.726869"  horiz-adv-x="1024" />

    
    <glyph glyph-name="qq01" unicode="&#58914;" d="M512 645.4272c-55.3984 0-105.8816-27.3408-143.0528-72.8064-38.0928-45.4656-62.0544-109.9776-63.6928-181.1456 0-3.2768-0.8192-6.656-2.4576-9.1136l0 0c-2.4576-4.096-5.8368-9.1136-8.2944-14.0288-2.4576-4.9152-5.8368-9.9328-8.2944-15.6672-11.5712-23.9616-18.2272-48.8448-20.6848-69.5296-2.4576-16.5888-0.8192-28.9792 3.2768-33.0752l0 0c0 0 0 0.8192 0.8192 0.8192 4.096 1.6384 9.9328 5.8368 15.6672 11.5712 3.2768 3.2768 7.4752 8.2944 10.752 13.2096 4.9152 7.4752 15.6672 9.1136 23.1424 4.096 2.4576-2.4576 4.9152-4.9152 5.8368-7.4752l0 0c4.096-10.752 9.1136-21.504 14.0288-31.4368 4.9152-9.9328 10.752-19.8656 17.408-28.9792 4.9152-7.4752 3.2768-18.2272-4.096-23.1424-1.6384-0.8192-3.2768-1.6384-4.9152-2.4576-11.5712-4.096-20.6848-9.1136-27.3408-15.6672-4.096-4.096-6.656-8.2944-6.656-11.5712 0-8.2944 9.9328-16.5888 25.6-23.9616 19.8656-9.1136 47.104-14.848 78.5408-14.848 18.2272 0 34.7136 1.6384 50.4832 4.9152 14.848 3.2768 28.16 8.2944 37.1712 14.0288 5.8368 3.2768 12.3904 3.2768 17.408 0 9.9328-5.8368 22.3232-10.752 37.1712-14.0288s31.4368-4.9152 50.4832-4.9152c30.6176 0 58.7776 5.8368 78.5408 14.848 15.6672 7.4752 25.6 15.6672 25.6 23.9616 0 3.2768-2.4576 7.4752-6.656 11.5712-6.656 5.8368-16.5888 11.5712-28.16 15.6672-9.1136 3.2768-13.2096 12.3904-9.9328 21.504 0.8192 1.6384 0.8192 2.4576 1.6384 3.2768l0 0c6.656 9.1136 11.5712 19.0464 17.408 28.9792 5.8368 9.9328 9.9328 20.6848 14.0288 31.4368 3.2768 9.1136 13.2096 13.2096 21.504 9.9328 3.2768-1.6384 6.656-3.2768 8.2944-6.656 3.2768-4.096 6.656-8.2944 9.9328-11.5712 5.8368-6.656 10.752-10.752 15.6672-12.3904 0.8192-0.8192 0.8192-0.8192 0.8192-0.8192l0 0c4.096 4.096 4.9152 16.5888 3.2768 33.0752-2.4576 20.6848-9.1136 44.6464-20.6848 68.608 0 0 0 0.8192-0.8192 0.8192-2.4576 4.9152-4.9152 9.9328-7.4752 14.848-3.2768 4.9152-5.8368 9.9328-8.2944 14.0288-1.6384 3.2768-2.4576 6.656-2.4576 9.1136-1.6384 71.168-25.6 134.8608-63.6928 181.1456C617.8816 617.2672 567.3984 645.4272 512 645.4272L512 645.4272zM343.2448 594.944c42.9056 52.9408 102.6048 85.1968 168.7552 85.1968s125.7472-32.256 168.7552-85.1968c41.3696-50.4832 68.608-119.9104 71.168-197.7344 2.4576-4.096 4.9152-8.2944 7.4752-12.3904 2.4576-4.9152 5.8368-10.752 8.2944-16.5888 0 0 0-0.8192 0.8192-0.8192 13.2096-27.3408 21.504-55.3984 23.9616-79.36 3.2768-27.3408-0.8192-49.664-13.2096-61.2352-0.8192-0.8192-2.4576-1.6384-3.2768-2.4576-9.9328-7.4752-21.504-7.4752-33.0752-3.2768-7.4752 3.2768-14.848 8.2944-21.504 14.848-1.6384-3.2768-3.2768-6.656-4.9152-9.1136-2.4576-4.9152-5.8368-10.752-8.2944-15.6672 8.2944-4.096 14.848-9.1136 20.6848-14.848 10.752-10.752 17.408-23.1424 17.408-36.352 0-22.3232-17.408-41.3696-44.6464-54.5792-23.9616-10.752-56.2176-17.408-91.8528-17.408-20.6848 0-40.5504 2.4576-57.0368 6.656-14.848 3.2768-27.3408 7.4752-38.912 13.2096-10.752-5.8368-23.9616-9.9328-38.912-13.2096-17.408-4.096-37.1712-6.656-57.856-6.656-35.5328 0-67.7888 6.656-91.8528 17.408-28.16 12.3904-44.6464 31.4368-44.6464 54.5792 0 13.2096 6.656 25.6 17.408 36.352 5.8368 4.9152 12.3904 9.9328 20.6848 14.848-3.2768 4.9152-5.8368 9.9328-8.2944 15.6672-1.6384 3.2768-3.2768 6.656-4.9152 9.9328-7.4752-6.656-14.848-11.5712-21.504-14.848-12.3904-4.9152-23.1424-4.096-33.0752 3.2768-0.8192 0.8192-2.4576 1.6384-3.2768 2.4576-12.3904 11.5712-16.5888 33.8944-13.2096 61.2352 2.4576 23.9616 10.752 52.1216 23.9616 79.36 3.2768 6.656 5.8368 12.3904 9.1136 17.408 2.4576 4.096 4.9152 8.2944 7.4752 11.5712C277.0944 474.112 309.248 552.96 343.2448 594.944zM267.9808 250.88 267.9808 250.88 267.9808 250.88zM756.0192 250.88 756.0192 250.88 756.0192 250.88z"  horiz-adv-x="1024" />

    
    <glyph glyph-name="weixinzhifu" unicode="&#58979;" d="M393.371826 264.370087c-60.794435-34.014609-69.810087 19.077565-69.810087 19.077565l-76.198957 178.376348c-29.317565 84.769391 25.377391 38.221913 25.377391 38.221913s46.925913-35.617391 82.543304-57.321739c35.59513-21.704348 76.176696-6.366609 76.176696-6.366609L929.613913 667.024696C837.698783 781.734957 685.879652 856.754087 514.003478 856.754087c-280.509217 0-507.881739-199.635478-507.881739-445.907478 0-141.645913 75.286261-267.731478 192.556522-349.42887l-21.147826-121.967304c0 0-10.306783-35.59513 25.421913-19.077565 24.353391 11.241739 86.416696 51.600696 123.369739 76.154435 58.078609-20.301913 121.366261-31.588174 187.703652-31.588174 280.486957 0 507.904 199.635478 507.904 445.907478 0 71.346087-19.166609 138.707478-53.114435 198.500174C810.117565 513.558261 440.943304 290.927304 393.371826 264.370087z"  horiz-adv-x="1024" />

    
    <glyph glyph-name="weixin2" unicode="&#58915;" d="M511.995117-113.670641c-67.171987 0-132.349224 13.160484-193.720624 39.121424-59.262317 25.066952-112.48565 60.948124-158.182451 106.644925-45.696801 45.693152-81.577973 98.916486-106.646141 158.182451-25.96094 61.3714-39.116559 126.543772-39.116559 193.726705 0 67.171987 13.155619 132.349224 39.116559 193.720624 25.068168 59.262317 60.94934 112.48565 106.646141 158.182451s98.920134 81.577973 158.182451 106.646141c61.3714 25.959724 126.548637 39.116559 193.720624 39.116559 67.173203 0 132.358954-13.156835 193.72184-39.116559 59.270831-25.068168 112.489299-60.954205 158.1861-106.646141 45.698018-45.696801 81.574324-98.920134 106.646141-158.182451 25.956075-61.3714 39.121424-126.548637 39.121424-193.730354 0-67.173203-13.165349-132.35044-39.121424-193.72184-25.071817-59.265966-60.948124-112.484434-106.646141-158.177586-45.696801-45.696801-98.915269-81.582839-158.17637-106.644925C644.350422-100.505292 579.16832-113.670641 511.995117-113.670641L511.995117-113.670641 511.995117-113.670641zM511.995117 847.584744c-62.582846 0-123.293789-12.257981-180.440941-36.427296C276.349472 787.81036 226.775071 754.38492 184.194458 711.805523c-42.580613-42.575747-76.004837-92.155013-99.351925-147.359717-24.169314-57.147152-36.428512-117.858095-36.428512-180.440941 0-62.587711 12.259198-123.303519 36.428512-180.447023 23.347088-55.199838 56.776177-104.777888 99.351925-147.353635 42.580613-42.580613 92.155013-76.009702 147.359717-99.358006 57.147152-24.17418 117.858095-36.427296 180.440941-36.427296 62.592576 0 123.303519 12.253116 180.447023 36.427296 55.198622 23.351953 104.777888 56.777394 147.353635 99.358006 42.585478 42.575747 76.009702 92.148932 99.358006 147.353635 24.17418 57.143503 36.427296 117.854447 36.427296 180.447023 0 62.587711-12.253116 123.298654-36.427296 180.440941-23.35317 55.204704-56.772528 104.783969-99.358006 147.359717-42.575747 42.579396-92.155013 76.009702-147.353635 99.351925C635.298636 835.326762 574.587693 847.584744 511.995117 847.584744L511.995117 847.584744 511.995117 847.584744zM444.238084 255.836102M638.858778 499.409662c8.250237 0 16.363031-0.6264 24.522044-1.520389-21.966575 102.291748-131.297115 178.275908-256.145349 178.275908-139.548568 0-253.859901-95.076592-253.859901-215.88789 0-69.710428 38.013365-126.952452 101.581423-171.420779l-25.374678-76.344187 88.760289 44.471976c31.738417-6.233593 57.198237-12.687339 88.894084-12.687339 7.979 0 15.866776 0.355163 23.666978 0.938992-4.929708 16.990647-7.841556 34.742705-7.841556 53.25739C423.103466 409.396572 518.318717 499.409662 638.858778 499.409662L638.858778 499.409662 638.858778 499.409662zM502.405721 568.221236c19.188521 0 31.783421-12.596116 31.783421-31.692197 0-19.009723-12.5949-31.738417-31.783421-31.738417-18.963504 0-38.059585 12.728694-38.059585 31.738417C464.346136 555.671339 483.395998 568.221236 502.405721 568.221236L502.405721 568.221236 502.405721 568.221236zM324.751348 504.790621c-19.049862 0-38.238383 12.728694-38.238383 31.738417 0 19.096081 19.188521 31.692197 38.238383 31.692197 19.051078 0 31.697063-12.551112 31.697063-31.692197C356.448411 517.519315 343.802426 504.790621 324.751348 504.790621L324.751348 504.790621 324.751348 504.790621zM870.61831 301.540201c0 101.490199-101.577774 184.199342-215.667738 184.199342-120.807649 0-215.88789-82.75293-215.88789-184.199342 0-101.757788 95.126461-184.196909 215.88789-184.196909 25.283455 0 50.79436 6.322384 76.164173 12.688556l69.617988-38.193379-19.096081 63.471969C832.604944 193.59504 870.61831 244.29696 870.61831 301.540201L870.61831 301.540201 870.61831 301.540201zM584.932417 333.323622c-12.596116 0-25.372246 12.549896-25.372246 25.371029 0 12.642336 12.774914 25.372246 25.372246 25.372246 19.276095 0 31.783421-12.728694 31.783421-25.372246C616.715838 345.873518 604.208513 333.323622 584.932417 333.323622L584.932417 333.323622 584.932417 333.323622zM724.573425 333.323622c-12.507325 0-25.238452 12.549896-25.238452 25.371029 0 12.642336 12.68369 25.372246 25.238452 25.372246 19.097298 0 31.779772-12.728694 31.779772-25.372246C756.353197 345.873518 743.669506 333.323622 724.573425 333.323622L724.573425 333.323622 724.573425 333.323622zM724.573425 333.323622"  horiz-adv-x="1024" />

    
    <glyph glyph-name="gengxin" unicode="&#59020;" d="M752.758 115.324c-53.755-74.956-141.543-123.504-240.636-123.504-162.636 0-295.034 125.869-295.97 294.691h96.562l-153.74 153.143-153.466-153.143h96.782c0.949-223.545 184.048-408.542 409.833-408.542 130.749 0 247.085 61.061 322.151 156.381l-81.517 80.974zM955.191 286.512h-40.102c0 0 0-1.326 0-1.311 0 0.745 3.488 1.471 3.488 2.207 0 226.365-181.795 409.861-408.17 409.861-131.793 0-248.15-62.292-323.108-158.959l82.193-81.294c53.604 76.356 142.356 126.402 242.507 126.402 163.243 0 293.71-132.79 293.71-296.011 0-0.737-2.396-1.465-2.396-2.207 0-0.014 0 1.311 0 1.311h-92.027l153.739-153.143 153.467 153.143h-63.298z"  horiz-adv-x="1024" />

    
    <glyph glyph-name="guanbi" unicode="&#58949;" d="M885.194343 130.756525l0.060768 0 0 0.378828L885.194343 130.756525zM942.128485 383.131152C942.128485 620.322909 749.154909 813.252525 512.008404 813.252525 274.801131 813.252525 81.871515 620.322909 81.871515 383.131152c0-237.177535 192.929616-430.121374 430.136889-430.121374C749.149737-46.990222 942.128485 145.953616 942.128485 383.131152M512.008404 14.726465c-203.121778 0-368.404687 165.313939-368.404687 368.404687 0 203.115313 165.282909 368.389172 368.404687 368.389172 203.085576 0 368.373657-165.273859 368.373657-368.389172C880.382061 180.040404 715.09398 14.726465 512.008404 14.726465M688.229495 248.428606 555.229737 381.822707l132.879515 131.393939c12.060444 11.909172 12.150949 31.379394 0.241778 43.439838-11.909172 12.07596-31.409131 12.171636-43.469576 0.231434l-132.999758-131.555556L380.866586 556.762505c-11.999677 12.004848-31.43499 12.060444-43.464404 0.060768-12.004848-12.015192-12.004848-31.450505-0.065939-43.455354L468.200081 382.125253 336.300606 251.655758c-12.060444-11.938909-12.18198-31.343192-0.241778-43.408808 6.030222-6.09099 13.893818-9.135838 21.81301-9.135838 7.797657 0 15.656081 2.984081 21.625535 8.86303l132.081778 130.651798 133.12-133.606141c6.000485-6.000485 13.889939-9.015596 21.778101-9.015596 7.858424 0 15.687111 3.015111 21.687596 8.954828C700.169697 216.92897 700.199434 236.368162 688.229495 248.428606"  horiz-adv-x="1024" />

    
    <glyph glyph-name="finance_management" unicode="&#58917;" d="M21.727409-128c-11.758362 0-20.960559 9.202197-20.960559 20.960559L0.76685 875.039441c0 11.758362 9.202197 20.960559 20.960559 20.960559s20.960559-9.202197 20.960559-20.960559l0-982.078882C42.687968-118.797803 33.485771-128 21.727409-128zM991.025462-128 21.727409-128c-11.758362 0-20.960559 9.202197-20.960559 20.960559 0 11.758362 9.202197 20.960559 20.960559 20.960559l969.298053 0c11.758362 0 20.960559-9.202197 20.960559-20.960559C1011.986021-118.797803 1002.783824-128 991.025462-128zM782.442336 28.437344 196.057913 683.838243 44.732901 537.625562c-8.17973-8.17973-21.471792-7.668497-29.651523 0.511233-8.17973 8.17973-7.668497 21.471792 0.511233 29.651523l183.021468 176.375437L781.931103 91.830255l176.375437 200.403395c7.668497 8.690964 20.960559 9.71343 29.651523 2.044933 8.690964-7.668497 9.71343-20.960559 2.044933-29.651523L782.442336 28.437344zM29.907139 29.971043c-4.601098 0-9.71343 1.533699-13.803295 5.112332-8.690964 7.668497-9.71343 20.960559-2.556166 29.651523L264.051922 357.671493l188.133799-213.184224L878.554169 633.737394c7.668497 8.690964 20.960559 9.71343 29.651523 2.044933 8.690964-7.668497 9.71343-20.960559 2.044933-29.651523L452.185721 80.583125l-187.622566 213.184224L46.2666 37.128308C42.176735 32.527209 36.041937 29.971043 29.907139 29.971043z"  horiz-adv-x="1024" />

    
    <glyph glyph-name="fusion" unicode="&#58918;" d="M825.344 534.528c-3.072 167.424-140.288 303.104-308.736 303.104-167.424 0-303.616-133.632-308.224-299.52C87.552 496.64 0 381.44 0 246.784c0-169.984 138.24-308.224 308.736-308.224 77.824 0 148.992 29.184 203.776 76.8 54.272-47.616 125.44-76.8 203.776-76.8 169.984 0 308.736 138.24 308.736 308.224C1024.512 377.856 941.568 490.496 825.344 534.528zM615.424 281.6c-7.168 63.488-33.792 120.832-73.728 166.912 46.592 40.448 107.52 65.024 174.08 65.024 23.04 0 45.568-3.072 67.072-8.704C773.632 403.456 706.56 317.952 615.424 281.6zM512.512 74.24c-35.84 42.496-58.88 95.744-62.976 154.624 21.504-4.608 44.544-7.68 67.584-7.68 19.968 0 39.424 2.048 57.856 5.632C570.88 168.96 547.84 116.224 512.512 74.24zM250.88 506.88c18.432 4.096 37.888 6.144 57.856 6.144 66.56 0 127.488-24.576 174.08-65.024-38.912-45.056-65.536-101.376-73.216-163.328C322.048 323.584 259.072 407.552 250.88 506.88zM517.12 262.656c-23.04 0-45.568 3.072-67.072 8.704 5.12 55.808 27.648 107.008 62.464 147.456 34.816-40.96 57.856-93.184 62.464-150.016C556.032 265.216 536.576 262.656 517.12 262.656zM517.12 796.16c141.312 0 257.024-110.08 266.24-248.832-21.504 4.608-44.032 7.68-67.584 7.68-77.824 0-148.992-29.184-203.776-76.8-54.272 47.616-125.44 76.8-203.776 76.8-19.968 0-39.424-2.048-57.856-5.632C261.12 687.104 376.32 796.16 517.12 796.16zM41.472 246.784C41.472 358.912 111.616 455.168 210.432 494.592c13.312-116.224 91.136-212.992 197.12-252.928 1.024-75.264 29.696-143.872 75.776-196.608-46.592-40.448-107.52-65.024-174.08-65.024C161.28-19.968 41.472 99.84 41.472 246.784zM715.776-19.968c-66.56 0-127.488 24.576-174.08 65.024 45.568 52.224 73.216 119.296 75.264 193.024 109.568 37.376 190.976 134.656 205.824 252.928 94.208-41.472 159.744-135.168 159.744-244.224C983.04 99.84 863.232-19.968 715.776-19.968z"  horiz-adv-x="1026" />

    
    <glyph glyph-name="account_rule" unicode="&#58919;" d="M1008.64 266.24c-37.376-41.984-113.664-112.64-203.776-112.64-94.208 0-165.888 79.872-192.512 114.176-13.312 17.408-14.848 40.448-4.096 59.904l157.696 275.968c9.728 16.896 26.624 26.624 46.08 26.624s36.352-10.24 46.08-26.624l156.672-274.432C1026.048 308.224 1023.488 283.136 1008.64 266.24zM977.92 307.2l-156.672 274.432c-2.56 4.608-7.168 5.12-9.216 5.12-2.048 0-6.656-0.512-9.216-5.12L645.12 305.664c-2.048-3.584-2.048-8.704 0.512-11.776 22.528-29.184 83.456-97.28 159.232-97.28 76.288 0 145.408 68.608 172.032 98.304C979.968 297.984 980.48 303.104 977.92 307.2zM958.464 650.752l-427.52 0 0-689.664 168.448 0c11.776 0 21.504-9.728 21.504-21.504s-9.728-21.504-21.504-21.504L319.488-81.92c-11.776 0-21.504 9.728-21.504 21.504s9.728 21.504 21.504 21.504l168.448 0L487.936 650.752 60.928 650.752c-11.776 0-21.504 9.728-21.504 21.504s9.728 21.504 21.504 21.504l427.52 0L488.448 838.656c0 11.776 9.728 21.504 21.504 21.504 11.776 0 21.504-9.728 21.504-21.504l0-144.896 427.52 0c11.776 0 21.504-9.728 21.504-21.504S970.24 650.752 958.464 650.752zM212.48 629.76C212.48 629.76 212.48 629.76 212.48 629.76c19.456 0 36.352-10.24 46.08-26.624l156.672-274.432c11.264-19.968 9.216-45.056-6.144-62.464-37.376-41.984-113.664-112.64-203.776-112.64-94.208 0-165.888 79.872-192.512 114.176-13.312 17.408-14.848 40.448-4.096 59.904l157.696 275.968C176.128 620.032 193.536 629.76 212.48 629.76zM46.592 293.888c22.528-29.184 83.456-97.28 159.232-97.28 76.288 0 145.408 68.608 172.032 98.304 3.072 3.584 3.584 8.192 1.024 12.288L221.696 581.632c-2.56 4.608-7.168 5.12-9.216 5.12-2.048 0-6.656-0.512-9.216-5.12L46.08 305.664C43.52 302.08 44.032 296.96 46.592 293.888z"  horiz-adv-x="1024" />

    
    <glyph glyph-name="accounting_treatment" unicode="&#58920;" d="M848.384-61.952c0-11.776-9.728-21.504-22.016-21.504L98.816-83.456c-11.776 0-22.016 9.728-22.016 21.504L76.8 715.264c0 11.776 9.728 21.504 22.016 21.504l189.952 0 0-76.8 348.16 0 0 76.8 189.952 0c11.776 0 22.016-9.728 22.016-21.504l0-97.28 43.52 0 0 97.28c0 35.84-29.184 65.024-65.536 65.024l-193.024 0L633.856 850.432l-62.464 0c-16.384 12.288-61.952 41.472-109.056 41.472-47.616 0-92.672-29.696-109.056-41.472L288.768 850.432l0-70.144L98.816 780.288c-35.84 0-65.536-29.184-65.536-65.024l0-777.216c0-35.84 29.184-65.024 65.536-65.024l728.064 0c35.84 0 65.536 29.184 65.536 65.024l0 266.752-43.52 0L848.896-61.952zM332.288 806.912l35.328 0 6.144 5.12c12.288 10.24 52.224 36.864 88.064 36.864 42.496 0 87.552-36.352 88.064-36.864l6.144-5.12 34.304 0 0-102.4L332.288 704.512 332.288 806.912zM500.224 540.16 206.336 540.16c-11.776 0-22.016-9.728-22.016-21.504 0-11.776 9.728-21.504 22.016-21.504l293.888 0c11.776 0 22.016 9.728 22.016 21.504C522.24 530.432 512.512 540.16 500.224 540.16zM500.224 420.352 206.336 420.352c-11.776 0-22.016-9.728-22.016-21.504 0-11.776 9.728-21.504 22.016-21.504l293.888 0c11.776 0 22.016 9.728 22.016 21.504C522.24 410.624 512.512 420.352 500.224 420.352zM500.224 290.304 206.336 290.304c-11.776 0-22.016-9.728-22.016-21.504 0-11.776 9.728-21.504 22.016-21.504l293.888 0c11.776 0 22.016 9.728 22.016 21.504C522.24 280.576 512.512 290.304 500.224 290.304zM979.968 442.368l-110.08 110.08c-5.12 5.12-11.264 7.68-18.432 7.68 0 0 0 0 0 0-7.168 0-13.312-2.56-18.432-7.68l-349.184-348.16c-3.584-3.584-5.632-7.68-6.656-12.288l-33.28-142.848c-2.048-8.704 0.512-17.92 7.168-24.064 5.12-5.12 11.776-7.68 18.432-7.68 2.048 0 4.096 0 6.144 0.512l143.36 32.768 0 0c4.608 1.024 9.216 3.584 12.288 7.168l349.184 348.16c5.12 5.12 7.68 11.264 7.68 18.432C987.648 431.104 984.576 437.76 979.968 442.368zM603.648 91.648l-111.104-25.6 25.6 111.104 242.176 241.664 85.504-85.504L603.648 91.648zM876.544 364.032l-85.504 85.504 60.416 60.416L936.96 423.936 876.544 364.032z"  horiz-adv-x="1024" />

    
    <glyph glyph-name="budget_management" unicode="&#58921;" d="M616.343656 88.35964c-1.534466-7.160839-3.58042-14.833167-5.626374-21.994006l55.240759 0c8.183816 0 15.344655 6.649351 15.344655 15.344655l0 78.769231c0 8.695305-6.649351 15.344655-15.344655 15.344655l-42.965035 0c0.511489-6.137862 0.511489-12.787213 0.511489-19.436563 0-1.022977 0-1.534466 0-2.557443l35.804196 0 0-65.470529L616.343656 88.35964zM927.84016 896 297.686314 896c-35.804196 0-64.959041-29.666334-64.959041-65.470529l0-354.461538c14.321678 3.068931 28.643357 4.603397 43.476523 5.626374L276.203796 830.529471c0 12.275724 9.718282 21.994006 21.482517 21.994006l630.153846 0c11.764236 0 21.482517-9.718282 21.482517-21.994006l0-802.013986c0-12.275724-9.718282-21.994006-21.482517-21.994006l-341.162837 0c-8.183816-15.344655-17.390609-30.177822-27.62038-43.988012l368.271728 0c35.804196 0 64.959041 29.666334 64.959041 65.470529L992.287712 830.529471C992.799201 866.845155 963.644356 896 927.84016 896zM320.191808 481.694306c33.246753-2.045954 64.959041-9.718282 94.625375-20.971029l8.183816 0c8.183816 0 15.344655 6.649351 15.344655 15.344655L438.345654 555.348651c0 8.695305-6.649351 15.344655-15.344655 15.344655L335.536464 570.693307c-8.183816 0-15.344655-6.649351-15.344655-15.344655L320.191808 481.694306zM342.185814 548.699301l74.677323 0 0-65.470529L342.185814 483.228771 342.185814 548.699301zM307.916084 168.151848l0 103.832168c14.321678-2.045954 27.62038-8.183816 37.338661-18.413586 4.603397-4.603397 12.787213-5.114885 17.902098-1.022977 5.114885 4.091908 5.626374 11.764236 1.022977 16.367632-14.321678 14.833167-34.26973 24.03996-56.263736 26.085914l0 23.528472c0 6.649351-5.626374 11.764236-12.787213 11.764236-7.160839 0-12.787213-5.114885-12.787213-11.764236l0-24.551449c-40.919081-6.137862-72.11988-36.827173-72.11988-74.165834 0-36.827173 31.200799-68.027972 72.11988-74.165834l0-103.320679c-26.597403 5.626374-46.545455 26.085914-46.545455 50.125874 0 6.649351-5.626374 11.764236-12.787213 11.764236s-12.787213-5.114885-12.787213-11.764236c0-36.827173 31.200799-68.027972 72.11988-74.165834l0-24.551449c0-6.649351 5.626374-11.764236 12.787213-11.764236 7.160839 0 12.787213 5.114885 12.787213 11.764236l0 23.528472c42.965035 4.603397 76.723277 36.315684 76.723277 74.677323C384.639361 131.836164 351.392607 163.548452 307.916084 168.151848zM282.853147 170.197802c-26.597403 5.626374-46.545455 26.085914-46.545455 50.125874 0 24.03996 19.948052 44.4995 46.545455 50.125874L282.853147 170.197802zM307.916084 42.325674l0 102.297702c29.154845-4.091908 51.148851-25.574426 51.148851-51.148851C359.576424 67.388611 337.070929 46.417582 307.916084 42.325674zM297.686314 417.758242c-143.728272 0-260.859141-116.619381-260.859141-260.859141 0-143.728272 116.619381-260.859141 260.859141-260.859141 143.728272 0 260.859141 116.619381 260.859141 260.859141C558.545455 300.627373 441.926074 417.758242 297.686314 417.758242zM297.686314-60.483516c-120.1998 0-217.382617 97.182817-217.382617 217.382617s97.182817 217.382617 217.382617 217.382617 217.382617-97.182817 217.382617-217.382617S417.886114-60.483516 297.686314-60.483516zM680.791209 357.914086c0 8.695305-6.649351 15.344655-15.344655 15.344655L578.493506 373.258741c-8.183816 0-15.344655-6.649351-15.344655-15.344655l0-12.275724c7.672328-11.252747 15.344655-22.505495 21.482517-34.781219l0 40.407592 74.677323 0 0-65.470529-62.401598 0c3.068931-7.160839 6.137862-14.321678 8.695305-21.994006l60.355644 0c8.183816 0 15.344655 6.649351 15.344655 15.344655L681.302697 357.914086zM904.823177 805.978022 320.191808 805.978022l0-156.003996 584.631369 0L904.823177 805.978022zM883.340659 671.968032 342.185814 671.968032 342.185814 783.984016l541.154845 0L883.340659 671.968032zM884.875125 373.258741l-87.464535 0c-8.183816 0-15.344655-6.649351-15.344655-15.344655l0-276.203796c0-8.695305 6.649351-15.344655 15.344655-15.344655l87.464535 0c8.183816 0 15.344655 6.649351 15.344655 15.344655l0 276.203796C900.21978 366.609391 893.57043 373.258741 884.875125 373.258741zM878.737263 88.35964l-74.677323 0 0 262.905095 74.677323 0L878.737263 88.35964zM680.791209 555.348651c0 8.695305-6.649351 15.344655-15.344655 15.344655L578.493506 570.693307c-8.183816 0-15.344655-6.649351-15.344655-15.344655l0-78.769231c0-8.695305 6.649351-15.344655 15.344655-15.344655l87.464535 0c8.183816 0 15.344655 6.649351 15.344655 15.344655L681.302697 555.348651zM659.308691 482.717283l-74.677323 0L584.631369 548.699301l74.677323 0L659.308691 482.717283zM900.21978 555.348651c0 8.695305-6.649351 15.344655-15.344655 15.344655l-87.464535 0c-8.183816 0-15.344655-6.649351-15.344655-15.344655l0-78.769231c0-8.695305 6.649351-15.344655 15.344655-15.344655l87.464535 0c8.183816 0 15.344655 6.649351 15.344655 15.344655L900.21978 555.348651zM878.737263 482.717283l-74.677323 0L804.05994 548.699301l74.677323 0L878.737263 482.717283z"  horiz-adv-x="1024" />

    
    <glyph glyph-name="career_development" unicode="&#58922;" d="M987.648 890.88C954.88 875.008 223.744 521.216 18.944 421.888c-22.528-11.264-24.064-43.008-2.56-55.808 92.672-55.808 280.576-168.96 279.04-167.424-0.512 0.512 114.176-209.408 168.96-309.76 12.288-22.528 44.544-22.016 56.32 0.512C628.224 97.28 1013.76 843.776 1020.928 858.112 1028.096 878.592 1012.736 901.12 987.648 890.88zM861.696 763.904 317.44 266.24c0 0 0.512-0.512 0.512-0.512l-1.024-1.024c-13.312 7.168-66.048 39.424-232.448 134.144L861.696 763.904zM496.64-51.2C496.64-51.2 496.64-50.688 496.64-51.2c-5.632 10.752-111.104 215.04-138.24 276.48L896 738.816 496.64-51.2z"  horiz-adv-x="1024" />

    
    <glyph glyph-name="cost_control" unicode="&#58923;" d="M984.064 62.976l-58.368 0.512-14.848-29.696 36.352-35.84c0 0 14.336-14.848-22.016-51.2-35.84-35.84-51.2-22.016-51.2-22.016l-36.352 36.352-29.184-14.848 0-57.856c0 0 0-14.336-43.52-14.336-43.52 0-43.52 14.336-43.52 14.336l0 57.856-29.184 14.848-35.84-36.352c0 0-15.36-14.336-51.2 21.504-35.328 35.328-21.504 51.712-21.504 51.712l35.84 36.352-14.848 28.672-58.368 0c0 0-14.336-0.512-14.336 43.52s14.848 44.032 14.848 44.032l58.368 0 14.336 28.672-36.352 36.864c0 0-13.312 15.872 22.016 51.2 35.328 35.328 50.688 22.016 50.688 22.016l36.864-36.864 29.184 14.848 0 58.368c0 0 0.512 14.336 44.032 14.336 43.008 0 44.032-14.336 44.032-14.336l0-58.88 28.672-14.336 36.864 36.864c0 0 14.848 13.312 50.688-22.528 35.84-35.84 22.016-50.688 22.016-50.688l-36.864-36.352 14.848-29.184 58.368 0c0 0 14.336-0.512 14.336-43.52C998.4 63.488 984.064 62.976 984.064 62.976zM969.216 121.344l-58.368 0-36.352 65.536 43.008 44.032-28.672 28.672-43.52-43.52-65.536 36.352 0 58.88-29.184 0 0-58.88-65.536-35.84-44.032 43.008-28.672-28.16 44.032-44.032-36.864-65.536-57.856 0 0-29.184L619.52 92.672l36.352-66.048-44.032-43.52 29.696-28.672 43.008 43.008 65.536-36.352 0-57.856 29.184 0 0 57.856 65.024 36.864 44.544-44.032 29.184 29.696-44.032 43.52 36.352 66.048 58.368 0L968.704 121.344zM764.928 33.28c-40.448 0-72.704 32.768-72.704 73.216 0 40.448 32.768 73.216 72.704 73.216 40.448 0 72.704-32.768 72.704-73.216C838.144 66.048 805.376 33.28 764.928 33.28zM764.928 150.528c-24.064 0-44.032-19.456-44.032-44.032 0-24.064 19.456-44.032 44.032-44.032 24.064 0 44.032 19.456 44.032 44.032C808.96 131.072 789.504 150.528 764.928 150.528zM775.68 461.824c-15.36-16.384-35.328-31.232-58.88-44.544-32.768-8.704-64-20.992-92.672-37.888-60.928-17.92-132.608-28.672-210.432-28.672-161.28 0-300.032 45.568-361.984 111.104L51.712 424.96l0-57.344c0-72.704 148.48-153.088 361.984-153.088 20.48 0 40.448 1.024 59.904 2.56-5.632-11.264-10.24-23.04-14.336-34.816-14.848-1.024-29.696-1.536-45.568-1.536-161.28 0-300.032 45.568-361.984 111.104l0-59.904 0-34.304c0-72.704 148.48-153.088 361.984-153.088 8.192 0 15.872 0.512 24.064 0.512 0.512-11.264 1.024-23.04 2.56-33.792-8.704-0.512-17.408-0.512-26.624-0.512-218.624 0-396.288 83.968-396.288 187.392L17.408 708.608C17.408 812.032 195.072 896 413.696 896c218.624 0 396.288-83.968 396.288-187.392l0-278.528c-11.776 0-23.04-0.512-34.304-1.536L775.68 461.824zM413.696 861.696c-212.992 0-361.984-80.896-361.984-153.088 0-72.704 148.48-153.088 361.984-153.088s361.984 80.896 361.984 153.088C775.68 781.312 626.688 861.696 413.696 861.696zM775.68 632.32c-61.952-65.536-200.704-111.104-361.984-111.104s-300.032 45.568-361.984 111.104l0-93.696c0-72.704 148.48-153.088 361.984-153.088s361.984 80.896 361.984 153.088L775.68 632.32z"  horiz-adv-x="1024" />

    
    <glyph glyph-name="economic_law" unicode="&#58924;" d="M267.264 80.896l-59.392 0-0.512 0c-39.424 0-67.072-4.096-83.968-23.552-17.408-19.968-16.896-49.664-10.24-91.136l3.072-17.92 319.488 0 1.536 19.968c3.072 46.08 1.536 73.216-15.36 91.648-18.432 19.456-49.664 20.992-84.992 21.504C313.344 81.408 290.304 80.896 267.264 80.896zM395.264-8.704 153.088-8.704c-1.536 14.848-2.56 32.256 3.072 38.4 7.168 8.704 40.96 8.704 51.712 8.192l59.904 0c23.04 0 46.08 0 68.608 0 23.04 0 47.104-1.024 53.76-7.68C395.264 25.088 395.776 7.168 395.264-8.704zM261.12 236.544c11.264-11.264 26.112-17.408 41.984-17.408 15.872 0 30.72 6.144 41.984 17.408 23.04 23.04 23.04 60.416 0 83.456L178.688 485.888c-23.04 23.04-60.928 23.04-84.48 0-23.04-23.04-23.04-60.416 0-83.456L261.12 236.544zM124.928 455.68c3.072 3.072 7.168 4.608 11.776 4.608 4.096 0 8.192-1.536 11.776-4.608l166.912-165.888c6.656-6.144 6.656-16.896 0-23.04-6.144-6.144-16.896-6.144-23.04 0L124.928 432.64C118.272 438.784 118.272 449.536 124.928 455.68zM655.872 628.736c11.264-11.264 26.112-17.408 41.984-17.408 15.872 0 30.72 6.144 41.984 17.408 23.04 23.04 23.04 60.416 0 83.456L573.44 878.08c-22.528 22.528-61.952 22.528-84.48 0-11.264-11.264-17.408-26.112-17.408-41.984 0-15.872 6.144-30.72 17.408-41.984L655.872 628.736zM519.68 847.872c3.072 3.072 7.168 4.608 11.776 4.608 4.608 0 8.704-1.536 11.776-4.608l166.912-165.888c6.656-6.144 6.656-16.896 0-23.04-6.144-6.144-16.896-6.144-23.04 0l-166.912 165.888c-3.072 3.072-4.608 7.168-4.608 11.776C514.56 840.704 516.608 844.8 519.68 847.872zM925.184 158.72l-372.224 338.432c46.592 34.304 103.424 70.144 103.936 70.656l23.04 14.336L461.824 799.232 171.52 510.464l218.624-217.088 14.336 23.04c0.512 0.512 29.184 47.104 59.904 89.6l343.04-363.008c15.872-15.872 36.864-24.576 59.392-24.576 22.528 0 43.52 8.704 59.392 24.576C957.952 74.752 957.952 126.464 925.184 158.72zM381.952 361.984l-149.504 148.48 229.376 227.84 150.016-148.992c-23.04-14.848-59.392-39.424-90.624-62.976l-1.536 1.024-7.68-8.192c-13.312-10.24-25.088-20.48-34.304-29.184C446.464 459.264 403.968 396.288 381.952 361.984zM895.488 73.216c-15.36-15.36-43.008-14.848-57.344-0.512L493.568 437.76l28.16 29.696 373.76-339.456C910.848 112.64 910.848 88.576 895.488 73.216zM417.792-68.608 123.392-68.608c-17.92 0-32.256-4.608-32.256-22.016 0-17.408 14.336-32.256 32.256-32.256l294.4 0c17.92 0 32.256 14.336 32.256 32.256C450.048-73.216 435.712-68.608 417.792-68.608z"  horiz-adv-x="1024" />

    
    <glyph glyph-name="finance_report" unicode="&#58925;" d="M1016.32 593.92l7.68-16.384 0-66.048 0-418.816c0-48.64-39.936-88.064-89.088-88.064l-89.088 0 0 44.032 89.088 0c24.576 0 44.544 19.968 44.544 44.032L979.456 555.52l-178.176 0c-49.152 0-89.088 39.424-89.088 88.064L712.192 798.208l0 44.032L311.808 842.24c-24.576 0-44.544-19.968-44.544-44.032l-44.544 0c0 48.64 39.936 88.064 89.088 88.064 0 0 171.008 0 333.824 0 4.096 0 8.192 0 11.776 0 7.68 0 15.36 0 23.04 0l62.464 0M757.248 805.376l0-161.792c0-24.576 19.968-44.032 44.544-44.032l150.528 0L757.248 805.376zM798.72 453.12l2.56-7.68L801.28 435.2l0-56.32 0-418.816c0-48.64-39.936-88.064-89.088-88.064L89.6-128c-49.152 0-89.088 39.424-89.088 88.064L0.512 665.6c0 48.64 39.936 88.064 89.088 88.064 0 0 171.008 0 333.824 0 4.096 0 8.192 0 11.776 0 7.68 0 15.36 0 23.04 0L512 753.664M534.528 673.28l0-161.792c0-24.576 19.968-44.032 44.544-44.032l150.528 0L534.528 673.28zM45.056 665.6l0-705.536c0-24.576 19.968-44.032 44.544-44.032l623.104 0c24.576 0 44.544 19.968 44.544 44.032L757.248 422.912l-178.176 0c-49.152 0-89.088 39.424-89.088 88.064L489.984 709.632 89.6 709.632C65.024 709.632 45.056 690.176 45.056 665.6zM156.16 400.896 378.88 400.896l0-44.032L156.16 356.864 156.16 400.896zM156.16 533.504 378.88 533.504l0-44.032L156.16 489.472 156.16 533.504zM645.632 224.768 156.16 224.768l0 44.032 489.472 0L645.632 224.768zM645.632 92.672 156.16 92.672l0 44.032 489.472 0L645.632 92.672z"  horiz-adv-x="1024" />

    
    <glyph glyph-name="financial_analysis" unicode="&#58926;" d="M1024 297.984l0 21.504C1023.488 637.44 763.904 896 444.928 896l-21.504 0 0-132.096C187.904 752.128 0 556.544 0 318.464 0 72.192 200.192-128 446.464-128c239.104 0 434.688 188.928 445.952 425.984L1024 297.984zM466.432 852.992c278.016-10.24 502.272-233.984 514.048-511.488L466.432 341.504 466.432 852.992zM446.464-84.992c-222.208 0-403.456 180.736-403.456 403.456 0 214.528 168.96 390.656 380.416 402.432l0-422.912 425.472 0C838.656 84.992 662.016-84.992 446.464-84.992z"  horiz-adv-x="1024" />

    
    <glyph glyph-name="financial_controlsvg" unicode="&#58927;" d="M464.896 351.232c0 5.632-4.608 9.728-9.728 9.728-5.632 0-9.728-4.608-9.728-9.728 0-31.744 24.576-57.856 56.32-62.976l0-20.48c0-5.632 4.608-9.728 9.728-9.728 5.632 0 9.728 4.608 9.728 9.728l0 19.968c33.792 3.584 60.416 30.72 60.416 63.488 0 32.768-26.112 59.904-60.416 63.488L521.216 502.784c11.264-1.536 22.016-7.168 29.184-15.36 3.584-4.096 9.728-4.608 13.824-1.024 4.096 3.584 4.608 9.728 1.024 13.824-11.264 12.288-27.136 20.48-44.032 22.528l0 19.968c0 5.632-4.608 9.728-9.728 9.728-5.632 0-9.728-4.608-9.728-9.728l0-20.48c-32.256-5.12-56.32-31.232-56.32-62.976 0-31.744 24.576-57.856 56.32-62.976l0-88.064C480.768 313.344 464.896 330.752 464.896 351.232zM521.728 394.752c23.04-3.584 40.448-21.504 40.448-43.52 0-22.016-17.408-39.936-40.448-43.52L521.728 394.752zM464.896 459.264c0 20.48 15.36 37.888 36.352 43.008l0-85.504C480.768 421.376 464.896 438.784 464.896 459.264zM509.44 692.736c-147.456 0-267.776-119.296-267.776-266.24 0-82.944 50.176-147.456 94.72-203.776 30.208-38.4 58.368-74.752 58.368-104.448l42.496 0c0 44.032-32.768 86.016-67.584 130.56-39.936 51.2-85.504 109.568-85.504 177.664C284.16 549.888 385.536 650.24 509.44 650.24s224.768-100.352 224.768-223.744c0-60.928-27.648-95.232-59.904-134.656-33.792-41.472-71.68-88.064-82.432-171.008l42.496-5.632c9.216 70.656 41.984 110.592 73.728 149.504 34.304 41.984 69.632 85.504 69.632 161.28C777.216 573.44 656.896 692.736 509.44 692.736zM195.584 423.936l-128 0c-11.776 0-21.504-9.728-21.504-20.992 0-11.776 9.728-20.992 21.504-20.992l128 0c11.776 0 21.504 9.728 21.504 20.992C217.088 414.208 207.36 423.936 195.584 423.936zM263.168 629.248c8.192 8.192 8.192 21.504 0 30.208L172.544 749.056c-8.192 8.192-22.016 8.192-30.208 0-8.192-8.192-8.192-21.504 0-30.208l90.624-90.112c4.096-4.096 9.728-6.144 15.36-6.144C253.44 623.104 259.072 625.152 263.168 629.248zM497.664 726.016c11.776 0 21.504 9.728 21.504 20.992L519.168 875.008c0 11.776-9.728 20.992-21.504 20.992-11.776 0-21.504-9.728-21.504-20.992L476.16 747.52C476.672 735.744 485.888 726.016 497.664 726.016zM963.072 426.496l-128 0c-11.776 0-21.504-9.728-21.504-20.992 0-11.776 9.728-20.992 21.504-20.992l128 0c11.776 0 21.504 9.728 21.504 20.992C984.064 416.768 974.848 426.496 963.072 426.496zM880.64 734.208c-8.192 8.192-22.016 8.192-30.208 0l-90.624-90.112c-8.192-8.192-8.192-21.504 0-30.208 4.096-4.096 9.728-6.144 15.36-6.144 5.632 0 10.752 2.048 14.848 6.144L880.64 704C889.344 712.192 889.344 726.016 880.64 734.208zM630.784 102.4 390.656 102.4c-11.776 0-21.504-9.728-21.504-20.992 0-11.776 9.728-20.992 21.504-20.992l240.128 0c11.776 0 21.504 9.728 21.504 20.992C652.288 93.184 642.56 102.4 630.784 102.4zM630.784 36.352 393.216 36.352c-11.776 0-21.504-9.728-21.504-20.992 0-11.776 9.728-20.992 21.504-20.992l237.568 0c11.776 0 21.504 9.728 21.504 20.992C652.288 27.136 642.56 36.352 630.784 36.352zM610.304-24.064 416.256-24.064c-11.776 0-21.504-9.728-21.504-20.992 0-11.776 9.728-20.992 21.504-20.992l194.048 0c11.776 0 21.504 9.728 21.504 20.992C631.808-33.792 622.08-24.064 610.304-24.064zM556.544-84.992l-92.16 0c-11.776 0-21.504-9.728-21.504-20.992 0-11.776 9.728-20.992 21.504-20.992l92.16 0c11.776 0 21.504 9.728 21.504 20.992C578.048-94.72 568.32-84.992 556.544-84.992z"  horiz-adv-x="1024" />

    
    <glyph glyph-name="financial_informatization" unicode="&#58928;" d="M513.273632 896C232.055721 896 3.820896 667.255721 3.820896 386.547264c0-280.708458 228.744279-509.452736 509.452736-509.452736 280.708458 0 509.452736 228.744279 509.452736 509.452736C1022.216915 667.255721 793.98209 896 513.273632 896zM513.273632-80.111443c-257.273632 0-466.658706 209.385075-466.658706 466.658706S255.490547 853.20597 513.273632 853.20597C770.547264 853.20597 979.422886 643.820896 979.422886 386.547264S770.547264-80.111443 513.273632-80.111443zM513.273632 469.58806c-23.434826 0-42.79403-19.359204-42.79403-42.79403l0-320.955224c0-23.434826 19.359204-42.79403 42.79403-42.79403 23.434826 0 42.79403 19.359204 42.79403 42.79403l0 320.955224C556.067662 450.738308 536.708458 469.58806 513.273632 469.58806zM514.292537 694.766169c-23.434826 0-42.284577-18.849751-42.284577-42.284577l0-42.284577c0-23.434826 18.849751-42.284577 42.284577-42.284577s42.284577 18.849751 42.284577 42.284577l0 42.284577C556.577114 675.406965 537.727363 694.766169 514.292537 694.766169z"  horiz-adv-x="1024" />

    
    <glyph glyph-name="financial_tool" unicode="&#58929;" d="M96.768-113.664c-20.992 5.632-40.448 16.384-56.832 32.768-24.064 24.064-36.864 56.32-36.864 90.112 0 34.304 13.312 66.56 37.376 90.624L460.8 522.24c-30.72 100.864-3.584 211.968 71.68 287.744 74.752 75.264 183.296 102.912 285.696 72.192l41.472-12.288-98.304-98.816c-36.352-36.864-36.352-96.256 0-132.608 17.408-17.408 40.96-27.136 66.048-27.136 25.088 0 48.64 9.728 66.048 27.648l99.84 100.352 13.312-39.936C1040.896 593.92 1014.272 481.28 936.96 403.456c-79.872-80.384-196.608-105.984-301.568-66.56l-415.744-417.28C186.368-114.176 139.264-124.928 96.768-113.664zM757.76 841.216c-69.12 6.656-138.752-17.408-188.928-68.096-65.024-65.024-86.016-162.816-53.76-249.344l6.656-17.408L503.808 491.52 76.8 62.976c-14.336-14.336-22.016-33.28-22.016-53.76 0-20.48 7.68-39.424 22.016-53.248 29.184-29.696 77.312-29.696 106.496 0l425.472 427.008c-0.512-0.512 0.512 0.512 1.536 1.536l12.8 13.824 16.896-7.68c89.6-39.936 192-20.48 261.12 49.152l0 0c52.736 53.248 76.8 125.952 66.56 198.656l-37.376-37.376c-27.648-27.648-64-42.496-102.912-42.496-38.912 0-75.264 14.848-102.912 42.496-27.136 27.648-42.496 64-42.496 103.424 0 38.912 15.36 75.776 42.496 103.424L757.76 841.216z"  horiz-adv-x="1024" />

    
    <glyph glyph-name="funds_management" unicode="&#58930;" d="M202.24 74.24c-0.512 0-1.536 0-2.048 0l0 0-35.328 0c15.36 11.776 19.456 21.504 19.456 39.936L184.32 502.272c0 9.728 8.192 17.408 17.92 17.408l600.064 0c9.728 0 17.92-7.68 17.92-17.408l0-109.568c12.288 0 24.064-1.024 35.84-3.072l0 112.64c0 29.184-24.064 52.736-53.248 52.736l-16.384 0L786.432 609.28c0 35.328-29.184 63.488-64.512 63.488L422.4 672.768c-8.192 0-15.872 3.072-20.992 9.216l-44.544 76.288-2.048 2.56c-12.288 14.336-30.208 22.528-49.664 22.528L67.072 783.36c-35.84 0-65.536-28.672-65.536-63.488l0-229.888-1.024-359.424c0-50.176 41.472-91.136 92.672-91.136l544.768 0c-8.192 11.264-14.848 23.04-20.992 35.328L202.24 74.752zM148.992 502.272l0-378.88c-3.584-27.648-27.136-49.152-56.32-49.152-31.232 0-56.832 25.088-56.832 56.32l0 58.368L37.888 719.872c0 15.872 12.8 28.672 28.672 28.672l238.592 0c8.192 0 15.872-3.072 20.992-9.216l44.544-76.288 2.048-2.56c12.288-14.336 30.208-22.528 49.664-22.528L721.92 637.952c15.872 0 28.672-12.8 28.672-28.672l0-54.272L202.24 555.008C173.056 555.008 148.992 531.456 148.992 502.272zM855.552 176.64 855.552 245.76c10.24-1.536 19.456-5.632 26.624-11.776 3.584-3.072 9.728-3.584 13.312-0.512 4.096 3.072 4.096 7.68 0.512 10.752-10.24 9.728-25.088 15.872-40.448 17.408L855.552 291.84c0 4.608-4.096 8.192-9.216 8.192-5.12 0-9.216-3.584-9.216-8.192l0-30.208c-31.232-3.584-55.296-24.576-55.296-49.664 0-25.088 24.064-46.08 55.296-49.664l0-69.12c-20.992 3.584-36.352 17.408-36.352 33.792 0 4.096-4.096 7.68-9.728 7.68-5.12 0-9.728-3.584-9.728-7.68 0-25.088 24.064-46.08 55.296-49.664l0-30.208c0-4.608 4.096-8.192 9.216-8.192 5.12 0 9.216 3.584 9.216 8.192l0 30.208c31.744 3.584 55.808 24.576 55.808 49.664C911.872 152.064 887.296 173.056 855.552 176.64zM837.12 178.176c-20.992 3.584-36.352 17.408-36.352 33.792 0 16.896 15.872 30.72 36.352 33.792L837.12 178.176zM855.552 92.672l0 68.096c20.992-3.072 36.864-17.408 36.864-33.792C892.928 110.08 877.056 96.256 855.552 92.672zM837.12 355.328c-102.912 0-185.856-83.456-185.856-185.856 0-102.912 83.456-185.856 185.856-185.856 102.912 0 185.856 83.456 185.856 185.856C1023.488 272.384 940.032 355.328 837.12 355.328zM837.12 20.48c-82.432 0-148.992 66.56-148.992 148.992 0 82.432 66.56 148.992 148.992 148.992 82.432 0 148.992-66.56 148.992-148.992C986.112 87.04 919.552 20.48 837.12 20.48z"  horiz-adv-x="1024" />

    
    <glyph glyph-name="internal_audit" unicode="&#58931;" d="M180.736 731.136 79.872 630.784l-43.008 42.496c-8.192 8.192-22.016 8.192-30.208 0-8.192-8.192-8.192-21.504 0-30.208l57.856-57.344c4.096-4.096 9.728-6.144 15.36-6.144 5.632 0 10.752 2.048 15.36 6.144l116.224 115.2c8.192 8.192 8.192 21.504 0 30.208C202.752 739.328 188.928 739.328 180.736 731.136zM1000.96 684.544 325.12 684.544c-11.776 0-21.504-9.728-21.504-21.504l0-9.216c0-11.776 9.728-21.504 21.504-21.504l676.352 0c11.776 0 21.504 9.728 21.504 21.504l0 9.216C1022.464 674.816 1012.736 684.544 1000.96 684.544zM180.736 471.552l-100.864-99.84-43.008 42.496c-8.192 8.192-22.016 8.192-30.208 0-8.192-8.192-8.192-21.504 0-30.208l57.856-57.344c4.096-4.096 9.728-6.144 15.36-6.144 5.632 0 10.752 2.048 15.36 6.144l116.224 115.2c8.192 8.192 8.192 21.504 0 30.208C202.752 479.744 188.928 479.744 180.736 471.552zM1000.96 424.96 325.12 424.96c-11.776 0-21.504-9.728-21.504-21.504L303.616 394.24c0-11.776 9.728-21.504 21.504-21.504l676.352 0c11.776 0 21.504 9.728 21.504 21.504l0 9.216C1022.464 415.232 1012.736 424.96 1000.96 424.96zM180.736 186.368l-100.864-99.84-43.008 42.496c-8.192 8.192-22.016 8.192-30.208 0-8.192-8.192-8.192-21.504 0-30.208L64.512 40.96c4.096-4.096 9.216-6.144 15.36-6.144 5.632 0 11.264 2.048 15.36 6.144l116.224 115.2c8.192 8.192 8.192 21.504 0 30.208C202.752 194.56 188.928 194.56 180.736 186.368zM1000.96 139.776 325.12 139.776c-11.776 0-21.504-9.728-21.504-21.504l0-9.216c0-11.776 9.728-21.504 21.504-21.504l676.352 0c11.776 0 21.504 9.728 21.504 21.504l0 9.216C1022.464 130.048 1012.736 139.776 1000.96 139.776z"  horiz-adv-x="1024" />

    
    <glyph glyph-name="investment_merger" unicode="&#58932;" d="M527.872 403.456 527.872 606.72c24.576-4.096 46.592-16.896 62.464-35.84 7.68-9.216 21.504-10.24 30.208-2.048 8.704 8.192 9.728 23.04 1.536 32.256-24.064 28.672-57.856 47.104-94.208 51.712l0 46.592c0 12.8-9.728 23.04-21.504 23.04s-21.504-10.24-21.504-23.04l0-47.616c-68.608-12.288-120.832-72.704-120.832-145.408s52.224-133.12 120.832-145.408l0-202.752c-45.056 11.264-78.336 51.2-78.336 98.816 0 12.8-9.728 23.04-21.504 23.04s-21.504-10.24-21.504-23.04c0-72.704 52.224-133.12 120.832-145.408l0-47.616c0-12.8 9.728-23.04 21.504-23.04s21.504 10.24 21.504 23.04l0 46.592c72.192 8.704 128.512 71.168 128.512 146.432S600.576 394.752 527.872 403.456zM485.376 407.552c-45.056 11.264-78.336 51.2-78.336 98.816S440.832 593.92 485.376 604.672L485.376 407.552zM527.872 156.672l0 200.704c48.64-8.192 86.016-50.176 86.016-100.352C613.888 206.336 577.024 164.864 527.872 156.672zM986.624 589.824l-194.048-194.048c-8.192-8.192-8.192-20.992 0-29.184l194.048-194.048c12.8-12.8 34.816-3.584 34.816 14.336L1021.44 575.488C1021.44 593.408 999.424 602.624 986.624 589.824zM972.8 259.584l-121.856 121.856L972.8 503.296 972.8 259.584zM34.816 589.824C22.016 602.624 0 593.408 0 575.488l0-387.584c0-18.432 22.016-27.136 34.816-14.336l194.048 194.048c8.192 8.192 8.192 20.992 0 29.184L34.816 589.824zM48.64 259.584 48.64 503.296l121.856-121.856L48.64 259.584z"  horiz-adv-x="1024" />

    
    <glyph glyph-name="IPO" unicode="&#58933;" d="M512 896C229.888 896 0 666.624 0 385.024c0-272.384 214.528-495.616 483.328-510.464 9.216-1.536 18.944-2.56 28.672-2.56s19.456 1.024 28.672 2.56c268.8 14.848 483.328 238.08 483.328 510.464C1024 666.624 794.112 896 512 896zM944.128 571.392l-178.688 0c-23.04 116.224-67.072 209.408-123.904 265.728C777.728 798.208 888.832 699.392 944.128 571.392zM742.4 383.488c0-48.64-3.584-95.232-9.728-139.264L291.84 244.224c-6.656 44.032-9.728 90.624-9.728 139.264 0 51.712 4.096 100.864 11.264 146.944l438.272 0C738.304 484.352 742.4 435.2 742.4 383.488zM512 854.016c96.256 0 177.152-115.2 211.968-282.624L300.032 571.392C334.848 739.328 415.744 854.016 512 854.016zM382.464 837.12c-57.344-56.32-101.376-149.504-123.904-265.728L79.872 571.392C135.168 699.392 246.272 798.208 382.464 837.12zM40.96 385.024c0 50.688 8.192 99.84 23.04 145.408l187.392 0c-6.656-46.08-10.24-95.232-10.24-146.944 0-48.64 3.072-95.232 9.216-139.264L62.464 244.224C48.64 288.768 40.96 335.872 40.96 385.024zM77.312 203.264l179.2 0c22.016-117.248 65.024-211.968 121.856-269.312C242.688-26.112 132.096 74.24 77.312 203.264zM535.552-84.992c-7.68-0.512-15.872-0.512-23.552-0.512s-15.872 0-23.552 0.512c-87.04 17.408-158.72 130.048-189.44 288.256l426.496 0C694.272 45.568 622.592-67.584 535.552-84.992zM645.12-66.048c56.832 57.856 99.84 152.576 121.856 269.312l179.2 0C891.904 74.24 781.312-26.112 645.12-66.048zM773.632 244.224c6.144 44.032 9.216 90.624 9.216 139.264 0 51.712-3.584 100.864-10.24 146.944l187.392 0c14.848-46.08 23.04-94.72 23.04-145.408 0-49.152-7.68-96.256-21.504-140.8L773.632 244.224zM340.992 295.424l61.44 0-17.92 14.848L384.512 444.416l17.92 14.848-61.44 0 17.92-14.848 0-134.144L340.992 295.424zM433.152 372.224l0-61.952-17.92-14.848 61.44 0-17.92 14.848 0 60.416c8.704-0.512 14.848-1.024 18.944-1.024 29.696 0 49.664 6.144 59.392 18.944 5.632 7.168 8.704 15.872 8.704 25.088 0 14.848-6.656 26.624-19.456 35.328-10.24 6.656-27.648 10.24-51.712 10.24L415.232 459.264l17.92-14.848 0-60.416c-12.8 0.512-21.504-5.12-27.136-15.872 8.192 3.072 15.872 4.608 23.04 4.608C430.592 372.736 432.128 372.224 433.152 372.224zM458.752 447.488c7.168 0.512 13.312 1.024 18.432 1.024 11.264 0 20.48-2.048 27.648-6.656 4.096-2.56 7.68-6.656 10.24-11.264 2.56-5.12 3.584-10.24 3.584-16.384 0-7.168-1.024-12.8-4.096-16.896-2.56-4.096-6.656-7.68-12.288-10.24-7.68-3.584-17.408-5.12-29.184-5.12-4.608 0-9.216 0-13.824 0.512L459.264 447.488zM626.688 291.328c21.504 0 38.4 7.168 50.176 20.992 12.8 15.36 19.456 36.352 19.456 63.488 0 28.672-6.656 50.688-19.456 66.048-12.288 14.336-28.672 20.992-50.176 20.992-21.504-0.512-38.4-7.168-50.176-20.992-12.8-15.36-19.456-36.864-19.456-64.512 0-27.648 6.656-49.664 19.456-64.512C588.8 298.496 605.696 291.328 626.688 291.328zM589.312 418.816c2.56 10.24 7.168 18.432 12.8 23.552 6.656 6.144 14.848 9.728 23.552 9.728 7.168 0 13.312-2.048 19.456-5.632 6.144-3.584 10.752-8.704 13.824-14.848 3.072-6.144 5.632-13.824 7.168-22.528 1.536-8.704 2.048-19.968 2.048-33.28 0-32.768-5.632-54.272-16.896-64.512-6.656-6.144-14.848-9.728-23.552-9.728-6.656 0-13.312 2.048-19.456 5.632-6.144 3.584-10.752 8.704-13.824 14.848-6.144 12.288-9.216 30.208-9.216 54.784C585.216 394.752 586.752 408.576 589.312 418.816z"  horiz-adv-x="1024" />

    
    <glyph glyph-name="merge_report" unicode="&#58934;" d="M861.172242-128 163.338992-128c-38.342486 0-70.038942 31.185222-70.038942 70.038942L93.30005 615.844234l0.511233 0c0 7.157264 2.556166 13.803295 8.690964 18.404393L413.843235 869.927109C423.556665 879.640539 450.652022 896 467.522716 896l393.649526 0c38.342486 0 70.038942-31.185222 70.038942-70.038942l0-883.410884C931.211183-96.303545 900.025961-128 861.172242-128zM397.483774 799.376935 186.344483 639.360959l188.133799 0c12.780829 0 23.516725 10.224663 23.516725 23.516725L397.995007 799.376935zM884.688967 825.961058c0 12.780829-10.224663 23.516725-23.516725 23.516725l-393.649526 0c-2.044933 0-3.578632-0.511233-5.623565-1.022466l-14.314528-10.735896c-2.044933-3.578632-3.067399-7.157264-3.067399-11.247129l0-163.083375c0-38.853719-31.185222-70.038942-70.038942-70.038942L139.822267 593.349975 139.822267 353.070394l744.8667 0L884.688967 825.961058zM884.688967 306.036945 139.822267 306.036945l0-363.998003c0-12.780829 10.224663-23.516725 23.516725-23.516725l698.344483 0c12.780829 0 23.516725 10.224663 23.516725 23.516725L885.2002 306.036945zM635.207189 85.184224 444.005991 85.184224c-11.247129 0-21.471792 6.134798-26.584124 16.359461-5.112332 10.224663-4.601098 21.983025 2.044933 31.185222l2.044933 2.556166 95.089366 105.314029c11.247129 14.314528 35.786321 14.314528 47.544683 0l96.623065-107.358962c6.134798-9.202197 7.157264-21.471792 2.044933-31.185222C656.678982 91.319021 646.454319 85.184224 635.207189 85.184224zM539.60659 197.144284l-58.791812-64.92661 117.583625 0L539.60659 197.144284zM444.005991 561.142287l191.201198 0c11.247129 0 21.471792-6.134798 26.584124-16.359461 5.112332-10.224663 4.601098-21.983025-2.044933-31.185222l-2.044933-2.556166L563.123315 405.727409c-5.623565-7.157264-14.314528-11.247129-23.516725-11.247129-9.202197 0-17.89316 4.089865-23.516725 11.247129l-96.623065 107.358962c-6.134798 9.202197-7.157264 21.471792-2.044933 31.185222C422.534199 554.496256 432.758862 561.142287 444.005991 561.142287zM539.60659 449.182227l58.791812 64.92661-117.583625 0L539.60659 449.182227z"  horiz-adv-x="1024" />

    
    <glyph glyph-name="official" unicode="&#58935;" d="M600.064 712.192c-3.072 0-6.144 0.512-8.704 2.048-10.24 5.12-14.336 17.408-9.216 27.136 5.12 10.752 7.68 22.528 7.68 34.304 0 43.52-35.328 79.36-79.36 79.36-44.032 0-79.872-35.328-79.872-79.36 0-11.776 2.56-23.552 7.68-34.304 5.12-10.24 0.512-22.528-9.216-27.136-10.24-5.12-22.528-0.512-27.136 9.216-8.192 16.384-12.288 33.792-12.288 52.224C389.632 842.24 443.904 896 510.464 896c66.048 0 119.808-53.76 119.808-120.32 0-18.432-4.096-35.84-11.776-52.224C614.912 716.8 607.744 712.192 600.064 712.192zM510.464 474.624c-138.752 0-259.072 93.184-292.864 227.328-2.048 9.728-4.608 19.968-4.608 31.744C216.064 782.336 254.976 819.2 302.592 819.2c41.472 0 78.336-29.184 87.04-69.632 12.8-57.344 62.464-96.768 120.832-96.768 56.832 0 107.52 40.96 119.808 97.28 8.704 40.448 45.568 69.632 87.04 69.632 47.616 0 87.04-36.864 89.088-84.48 0-12.8-2.048-23.04-4.096-32.256-3.072-15.36-8.192-28.672-13.824-40.96-4.096-10.24-16.384-15.36-26.624-10.752-10.24 4.096-15.36 16.384-10.752 26.624 4.608 10.752 8.704 22.016 11.264 33.792 2.048 8.192 3.584 15.36 3.584 22.528-1.536 25.088-22.016 44.544-48.64 44.544-22.528 0-42.496-15.872-47.104-37.376-16.384-74.752-83.456-129.024-159.744-129.024-77.824 0-143.872 53.248-160.768 129.024-4.608 22.016-24.576 37.888-47.104 37.888-25.6 0-47.104-20.48-48.64-46.08 0-6.144 1.536-13.824 3.584-21.504 29.184-115.2 133.12-195.584 252.928-195.584 33.28 0 67.584 6.656 98.304 19.456 10.24 4.096 22.528-0.512 26.624-11.264 4.096-10.24-0.512-22.528-11.264-26.624C588.8 482.816 549.376 474.624 510.464 474.624zM120.832 265.728c-66.56 0-120.832 53.76-120.832 120.32s54.272 120.32 120.832 120.32c17.92 0 32.768-3.072 46.592-9.728 10.24-4.608 14.848-16.896 9.728-27.136-4.608-10.24-16.896-14.848-27.136-9.728-8.704 4.096-17.92 5.632-29.696 5.632C76.8 465.408 40.96 429.568 40.96 386.048s35.84-79.36 79.872-79.36c9.728 0 19.968 2.048 30.72 6.144 10.24 4.096 22.528-1.024 26.624-11.776 4.096-10.752-1.024-22.528-11.776-26.624C151.04 268.8 135.68 265.728 120.832 265.728zM167.936 89.088c-2.048 0-4.096 0-5.632 0.512l-5.12 0c-45.056 5.12-79.36 43.52-79.36 89.088 0 41.472 29.184 78.336 69.632 87.04l5.632 1.536c54.272 14.848 91.136 63.488 91.136 118.784 0 54.272-36.352 102.912-88.576 118.784-4.096 0.512-7.168 1.536-9.216 2.56-39.936 8.704-68.608 44.544-68.608 87.04 0 45.568 34.304 83.456 79.36 88.576l5.12 0c11.264 1.024 22.528-1.024 32.256-3.584 14.336-4.096 28.16-8.192 40.96-13.312 10.24-4.096 15.36-16.384 10.752-26.624-4.096-10.24-16.384-15.36-26.624-10.752-10.752 4.608-23.552 8.192-35.328 11.776-4.096 1.024-13.312 3.072-18.944 2.048l-4.608 0c-24.064-3.072-41.984-23.552-41.984-47.616 0-23.04 15.36-42.496 37.376-47.104l4.096-1.536c0 0 0.512 0 0.512 0l4.096-1.024c70.656-19.968 120.32-85.504 120.32-158.72 0-73.728-49.664-138.752-120.32-157.696-2.56-1.024-5.632-2.048-10.24-2.56-20.992-5.12-36.352-24.576-36.352-46.592 0-25.088 17.408-45.568 41.984-48.64l5.12 0c4.608-0.512 10.752 0.512 17.92 3.072 116.736 29.696 197.632 133.12 197.632 252.928 0 34.304-6.656 66.56-19.456 99.84-4.096 10.24 1.024 22.528 11.264 26.624 10.24 4.096 22.528-1.024 26.624-11.264 15.36-37.888 22.528-75.264 22.528-114.688 0-138.24-93.184-258.048-226.816-291.84C185.856 91.136 176.64 89.088 167.936 89.088zM510.464-123.904c-66.56 0-120.832 53.76-120.832 120.32 0 18.432 4.096 35.84 11.776 52.224 5.12 10.24 16.896 14.336 27.136 9.728 10.24-5.12 14.336-16.896 9.728-27.136-5.12-10.752-7.68-22.016-7.68-34.304 0-43.52 35.84-79.36 79.872-79.36 43.52 0 79.36 35.328 79.36 79.36 0 12.288-2.56 23.552-7.68 34.304-5.12 10.24-0.512 22.528 9.728 27.136 10.24 5.12 22.528 0.512 27.136-9.728 7.68-16.384 11.776-33.792 11.776-52.224C630.272-70.144 576.512-123.904 510.464-123.904zM717.312-47.616c-41.472 0-78.336 29.696-87.04 70.656-12.288 55.296-62.976 95.744-119.808 95.744-58.368 0-108.032-39.424-120.832-96.256-8.704-40.96-45.056-70.656-87.04-70.656-47.616 0-87.04 37.376-89.088 84.48 0 11.776 2.048 21.504 3.584 30.72l0.512 2.048c4.608 15.36 8.704 28.16 13.312 40.448 4.096 10.752 15.872 15.872 26.112 11.776 10.752-4.096 15.872-15.872 11.776-26.112-4.608-11.264-8.192-23.04-11.776-35.84l0 0c-1.536-7.68-3.072-14.848-3.072-21.504 1.536-24.064 23.04-44.544 48.64-44.544 22.528 0 42.496 16.384 47.104 38.4 16.896 75.776 82.944 128.512 160.768 128.512 75.776 0 142.848-53.76 159.744-128 4.608-22.528 24.576-38.912 47.104-38.912 26.112 0 47.104 19.456 48.64 46.08 0 8.192-0.512 10.752-2.048 15.36-0.512 2.048-1.024 4.608-1.536 7.168-28.672 114.688-132.608 195.584-251.904 195.584-34.304 0-68.096-6.656-99.328-19.456-10.24-4.096-22.528 0.512-26.624 11.264-4.096 10.24 0.512 22.528 11.264 26.624 36.352 14.848 75.264 22.528 115.2 22.528 138.24 0 258.048-93.184 291.84-227.328 0.512-3.072 1.024-4.608 1.536-6.144 1.536-7.168 3.072-13.312 3.072-26.624C804.352-10.24 764.928-47.616 717.312-47.616zM852.48 89.088c-8.192 0-18.432 1.536-28.672 5.12-13.312 3.072-27.136 7.68-39.424 13.312-10.24 4.608-14.848 16.896-9.728 27.136 4.608 10.24 16.896 14.848 27.136 9.728 9.728-4.608 20.992-8.192 33.28-11.264 9.216-3.072 15.872-4.096 20.992-3.584l3.584 0c25.088 3.072 43.008 23.552 43.008 48.64 0 21.504-15.872 41.472-37.376 46.592-4.096 0.512-7.68 1.536-11.264 2.56-69.12 18.432-118.272 83.456-118.272 157.184 0 73.216 49.152 138.752 119.296 158.72l8.704 2.048c22.528 5.12 38.4 24.576 38.4 47.104 0 24.576-17.92 44.544-43.008 47.616l-1.536 0c-8.704 1.024-15.872-0.512-23.552-2.56-114.688-29.696-195.584-134.144-195.584-253.44 0-33.792 6.656-67.072 19.456-99.84 4.096-10.24-1.024-22.528-11.264-26.624-10.24-4.096-22.528 1.024-26.624 11.264-14.848 37.376-22.528 76.288-22.528 114.688 0 137.728 93.184 258.048 226.816 292.864 10.752 2.56 22.528 4.608 34.816 3.584l2.048 0 1.024 0c46.08-5.12 80.384-43.008 80.384-88.576 0-41.472-28.16-76.8-68.608-86.528-2.56-1.024-6.144-2.048-10.752-2.56-51.712-15.872-87.552-64.512-87.552-118.784 0-55.296 36.864-103.936 89.088-118.272 2.048-0.512 3.072-1.024 3.584-1.024l3.072-0.512c40.96-9.216 70.656-45.568 70.656-87.04 0-46.592-33.792-84.48-80.384-89.088l-5.12 0C856.064 89.088 854.528 89.088 852.48 89.088zM900.096 265.728c-15.872 0-30.72 3.072-46.592 9.216-10.752 4.096-15.872 15.872-11.776 26.112 4.096 10.752 15.872 15.872 26.112 11.776 11.264-4.096 20.992-6.144 31.744-6.144 43.52 0 79.36 35.328 79.36 79.36s-35.328 79.36-79.36 79.36c-12.8 0-22.016-1.536-30.72-5.632-10.24-4.608-22.528 0-27.136 9.728-4.608 10.24 0 22.528 9.728 27.136 14.336 6.656 29.184 9.728 47.616 9.728 66.048 0 119.808-53.76 119.808-120.32S966.144 265.728 900.096 265.728z"  horiz-adv-x="1024" />

    
    <glyph glyph-name="performance_management" unicode="&#58936;" d="M923.136 373.248c-13.824 0-25.088-11.264-25.088-25.088l0-451.072c0-13.824 11.264-25.088 25.088-25.088s25.088 11.264 25.088 25.088L948.224 348.16C948.224 361.984 936.96 373.248 923.136 373.248zM662.528 308.736c-13.824 0-25.088-11.264-25.088-25.088l0-386.56c0-13.824 11.264-25.088 25.088-25.088 13.824 0 25.088 11.264 25.088 25.088l0 386.56C687.616 297.472 676.352 308.736 662.528 308.736zM401.92 179.712c-13.824 0-25.088-11.264-25.088-25.088l0-257.536c0-13.824 11.264-25.088 25.088-25.088 13.824 0 25.088 11.264 25.088 25.088l0 257.536C426.496 168.448 415.744 179.712 401.92 179.712zM140.8 51.2c-13.824 0-25.088-11.264-25.088-25.088l0-129.024c0-13.824 11.264-25.088 25.088-25.088 13.824 0 25.088 11.264 25.088 25.088l0 129.024C165.888 39.936 154.624 51.2 140.8 51.2zM920.064 566.272c13.824 0 25.088 11.264 25.088 25.088L945.152 895.488l-302.08 0c-13.824 0-25.088-11.264-25.088-25.088 0-13.824 11.264-25.088 25.088-25.088l216.576 0-309.248-311.808L342.528 700.416l-261.12-350.208c-8.192-11.264-6.144-26.624 5.12-35.328 4.608-3.584 9.728-5.12 14.848-5.12 7.68 0 14.848 3.584 19.968 10.24l229.888 308.736 202.24-162.304 340.992 343.552 0-218.624C894.976 577.536 906.24 566.272 920.064 566.272z"  horiz-adv-x="1024" />

    
    <glyph glyph-name="risk_control" unicode="&#58937;" d="M887.194417 750.516451c-31.649053-10.71984-64.829511-16.334995-99.030907-16.334995-88.311067 0-170.49651 37.774676-225.11665 103.114656l-49.004985 58.703888-49.004985-58.703888C410.41675 771.445663 328.231306 734.181456 239.920239 734.181456c-34.201396 0-67.381854 5.615155-99.030907 16.334995l-84.227318 29.09671L56.662014 693.854437c0-342.524427 115.365902-544.159521 212.354935-652.378863 106.177468-118.939182 212.865404-156.20339 224.606181-160.287139l20.418744-6.636092 20.418744 6.636092c11.740778 4.083749 118.428714 41.858425 224.606181 161.308076 96.989033 108.729811 212.354935 310.364905 212.354935 651.357926L971.421735 779.613161 887.194417 750.516451zM928.542373 693.854437c0-328.231306-109.750748-520.167498-201.635095-623.282154-100.562313-112.813559-202.145563-147.525424-206.229312-149.05683l-6.636092-2.041874-7.14656 2.041874c-4.083749 1.531406-105.666999 35.732802-206.229312 148.035892-91.884347 103.114656-201.635095 294.540379-201.635095 624.303091l0 26.033898 27.054835-9.698903c36.24327-12.761715 74.017946-18.887338 113.324028-18.887338 101.072782 0 195.509472 43.389831 258.297109 118.428714l16.334995 19.397807 16.334995-19.397807c62.787637-75.549352 156.713858-118.428714 258.297109-118.428714 38.795613 0 77.080758 6.125623 113.324028 18.887338l27.054835 9.698903L929.052841 693.854437zM543.138584 378.384845 543.138584 514.169492c20.418744-3.062812 38.795613-11.230309 52.067797-23.481555 6.636092-6.125623 18.376869-6.636092 26.033898-1.020937 7.657029 5.615155 8.167498 15.314058 1.531406 21.439681-20.418744 18.887338-48.494516 30.628116-79.633101 34.201396L543.138584 603.501496c0 8.677966-8.167498 15.824526-18.376869 15.824526-10.209372 0-18.376869-7.14656-18.376869-15.824526l0-58.703888c-61.256231-7.14656-108.729811-47.984048-108.729811-97.499501 0-49.515454 47.473579-90.352941 108.729811-97.499501L506.384845 214.013958c-40.837488 6.636092-71.465603 33.690927-71.465603 66.360917 0 8.677966-8.167498 15.314058-18.376869 15.314058-10.209372 0-18.376869-6.636092-18.376869-15.314058 0-49.515454 47.473579-90.352941 108.729811-97.499501l0-58.703888c0-8.677966 8.167498-15.824526 18.376869-15.824526 10.209372 0 18.376869 7.14656 18.376869 15.824526l0 58.703888c61.7667 6.636092 109.750748 47.984048 109.750748 97.499501C652.378863 330.400798 604.905284 371.238285 543.138584 378.384845zM506.384845 380.937188c-40.837488 6.636092-71.465603 33.690927-71.465603 66.360917 0 32.66999 30.628116 60.235294 71.465603 66.360917L506.384845 380.937188zM543.138584 214.013958l0 133.232303c41.347956-6.125623 72.48654-33.690927 72.48654-66.871386C615.114656 247.704885 583.976072 220.139581 543.138584 214.013958z"  horiz-adv-x="1024" />

    
    </font>
</defs>
</svg>
